<?xml version="1.0" encoding="UTF-8" standalone="no"?><svg xmlns="http://www.w3.org/2000/svg" xmlns:xlink="http://www.w3.org/1999/xlink" contentStyleType="text/css" height="1677px" preserveAspectRatio="none" style="width:989px;height:1677px;background:#FFFFFF;" version="1.1" viewBox="0 0 989 1677" width="989px" zoomAndPan="magnify"><defs/><g><!--cluster views--><g id="cluster_views"><path d="M323.38,6 L369.38,6 A3.75,3.75 0 0 1 371.88,8.5 L378.88,28.2969 L748.38,28.2969 A2.5,2.5 0 0 1 750.88,30.7969 L750.88,96.5 A2.5,2.5 0 0 1 748.38,99 L323.38,99 A2.5,2.5 0 0 1 320.88,96.5 L320.88,8.5 A2.5,2.5 0 0 1 323.38,6 " fill="none" style="stroke:#000000;stroke-width:1.5;"/><line style="stroke:#000000;stroke-width:1.5;" x1="320.88" x2="378.88" y1="28.2969" y2="28.2969"/><text fill="#000000" font-family="sans-serif" font-size="14" font-weight="bold" lengthAdjust="spacing" textLength="45" x="324.88" y="20.9951">views</text></g><!--cluster controllers--><g id="cluster_controllers"><path d="M296.38,148 L384.38,148 A3.75,3.75 0 0 1 386.88,150.5 L393.88,170.2969 L775.38,170.2969 A2.5,2.5 0 0 1 777.88,172.7969 L777.88,238.5 A2.5,2.5 0 0 1 775.38,241 L296.38,241 A2.5,2.5 0 0 1 293.88,238.5 L293.88,150.5 A2.5,2.5 0 0 1 296.38,148 " fill="none" style="stroke:#000000;stroke-width:1.5;"/><line style="stroke:#000000;stroke-width:1.5;" x1="293.88" x2="393.88" y1="170.2969" y2="170.2969"/><text fill="#000000" font-family="sans-serif" font-size="14" font-weight="bold" lengthAdjust="spacing" textLength="87" x="297.88" y="162.9951">controllers</text></g><!--cluster models--><g id="cluster_models"><path d="M105.38,290 L164.38,290 A3.75,3.75 0 0 1 166.88,292.5 L173.88,312.2969 L980.38,312.2969 A2.5,2.5 0 0 1 982.88,314.7969 L982.88,1667.5 A2.5,2.5 0 0 1 980.38,1670 L105.38,1670 A2.5,2.5 0 0 1 102.88,1667.5 L102.88,292.5 A2.5,2.5 0 0 1 105.38,290 " fill="none" style="stroke:#000000;stroke-width:1.5;"/><line style="stroke:#000000;stroke-width:1.5;" x1="102.88" x2="173.88" y1="312.2969" y2="312.2969"/><text fill="#000000" font-family="sans-serif" font-size="14" font-weight="bold" lengthAdjust="spacing" textLength="58" x="106.88" y="304.9951">models</text></g><!--class MenuWindow--><g id="elem_MenuWindow"><rect codeLine="9" fill="#F1F1F1" height="42.2969" id="MenuWindow" rx="2.5" ry="2.5" style="stroke:#181818;stroke-width:0.5;" width="113" x="337.38" y="41"/><text fill="#000000" font-family="sans-serif" font-size="14" font-weight="bold" lengthAdjust="spacing" textLength="107" x="340.38" y="58.9951">MenuWindow</text><line style="stroke:#181818;stroke-width:0.5;" x1="338.38" x2="449.38" y1="67.2969" y2="67.2969"/><line style="stroke:#181818;stroke-width:0.5;" x1="338.38" x2="449.38" y1="75.2969" y2="75.2969"/></g><!--class GameWindow--><g id="elem_GameWindow"><rect codeLine="10" fill="#F1F1F1" height="42.2969" id="GameWindow" rx="2.5" ry="2.5" style="stroke:#181818;stroke-width:0.5;" width="114" x="485.88" y="41"/><text fill="#000000" font-family="sans-serif" font-size="14" font-weight="bold" lengthAdjust="spacing" textLength="108" x="488.88" y="58.9951">GameWindow</text><line style="stroke:#181818;stroke-width:0.5;" x1="486.88" x2="598.88" y1="67.2969" y2="67.2969"/><line style="stroke:#181818;stroke-width:0.5;" x1="486.88" x2="598.88" y1="75.2969" y2="75.2969"/></g><!--class EndWindow--><g id="elem_EndWindow"><rect codeLine="11" fill="#F1F1F1" height="42.2969" id="EndWindow" rx="2.5" ry="2.5" style="stroke:#181818;stroke-width:0.5;" width="99" x="635.38" y="41"/><text fill="#000000" font-family="sans-serif" font-size="14" font-weight="bold" lengthAdjust="spacing" textLength="93" x="638.38" y="58.9951">EndWindow</text><line style="stroke:#181818;stroke-width:0.5;" x1="636.38" x2="733.38" y1="67.2969" y2="67.2969"/><line style="stroke:#181818;stroke-width:0.5;" x1="636.38" x2="733.38" y1="75.2969" y2="75.2969"/></g><!--class MenuController--><g id="elem_MenuController"><rect codeLine="15" fill="#F1F1F1" height="42.2969" id="MenuController" rx="2.5" ry="2.5" style="stroke:#181818;stroke-width:0.5;" width="131" x="310.38" y="183"/><text fill="#000000" font-family="sans-serif" font-size="14" font-weight="bold" lengthAdjust="spacing" textLength="125" x="313.38" y="200.9951">MenuController</text><line style="stroke:#181818;stroke-width:0.5;" x1="311.38" x2="440.38" y1="209.2969" y2="209.2969"/><line style="stroke:#181818;stroke-width:0.5;" x1="311.38" x2="440.38" y1="217.2969" y2="217.2969"/></g><!--class GameController--><g id="elem_GameController"><rect codeLine="16" fill="#F1F1F1" height="42.2969" id="GameController" rx="2.5" ry="2.5" style="stroke:#181818;stroke-width:0.5;" width="132" x="476.88" y="183"/><text fill="#000000" font-family="sans-serif" font-size="14" font-weight="bold" lengthAdjust="spacing" textLength="126" x="479.88" y="200.9951">GameController</text><line style="stroke:#181818;stroke-width:0.5;" x1="477.88" x2="607.88" y1="209.2969" y2="209.2969"/><line style="stroke:#181818;stroke-width:0.5;" x1="477.88" x2="607.88" y1="217.2969" y2="217.2969"/></g><!--class EndController--><g id="elem_EndController"><rect codeLine="17" fill="#F1F1F1" height="42.2969" id="EndController" rx="2.5" ry="2.5" style="stroke:#181818;stroke-width:0.5;" width="117" x="644.38" y="183"/><text fill="#000000" font-family="sans-serif" font-size="14" font-weight="bold" lengthAdjust="spacing" textLength="111" x="647.38" y="200.9951">EndController</text><line style="stroke:#181818;stroke-width:0.5;" x1="645.38" x2="760.38" y1="209.2969" y2="209.2969"/><line style="stroke:#181818;stroke-width:0.5;" x1="645.38" x2="760.38" y1="217.2969" y2="217.2969"/></g><!--class Game--><g id="elem_Game"><rect codeLine="21" fill="#F1F1F1" height="188.9688" id="Game" rx="2.5" ry="2.5" style="stroke:#181818;stroke-width:0.5;" width="799" x="143.38" y="325"/><text fill="#000000" font-family="sans-serif" font-size="14" font-weight="bold" lengthAdjust="spacing" textLength="45" x="520.38" y="342.9951">Game</text><line style="stroke:#181818;stroke-width:0.5;" x1="144.38" x2="941.38" y1="351.2969" y2="351.2969"/><text fill="#000000" font-family="sans-serif" font-size="14" font-weight="bold" lengthAdjust="spacing" textLength="210" x="149.38" y="368.292">-_NBROUNDSMAX: Integer</text><line style="stroke:#181818;stroke-width:0.5;" x1="144.38" x2="941.38" y1="375.5938" y2="375.5938"/><text fill="#000000" font-family="sans-serif" font-size="14" font-weight="bold" lengthAdjust="spacing" textLength="218" x="149.38" y="392.5889">+Game(nbRounds: Integer)</text><text fill="#000000" font-family="sans-serif" font-size="14" font-weight="bold" lengthAdjust="spacing" textLength="740" x="149.38" y="408.8857">+nextRound(nbAttempts: Integer, nbColorsInCombination: Integer, gameMode: GameMode)</text><text fill="#000000" font-family="sans-serif" font-size="14" font-weight="bold" lengthAdjust="spacing" textLength="190" x="149.38" y="425.1826">-isGameOver(): Boolean</text><text fill="#000000" font-family="sans-serif" font-size="14" font-weight="bold" lengthAdjust="spacing" textLength="787" x="149.38" y="441.4795">-createNextRound(nbAttempts: Integer, nbColorsInCombination: Integer, gameMode: GameMode)</text><text fill="#000000" font-family="sans-serif" font-size="14" font-weight="bold" lengthAdjust="spacing" textLength="225" x="149.38" y="457.7764">+getCurrentRound(): Round</text><text fill="#000000" font-family="sans-serif" font-size="14" font-weight="bold" lengthAdjust="spacing" textLength="255" x="149.38" y="474.0732">+getCurrentRoundNb(): Integer</text><text fill="#000000" font-family="sans-serif" font-size="14" font-weight="bold" lengthAdjust="spacing" textLength="93" x="149.38" y="490.3701">-endGame()</text><text fill="#000000" font-family="sans-serif" font-size="14" font-weight="bold" lengthAdjust="spacing" textLength="255" x="149.38" y="506.667">+calculateScoreGame(): Integer</text></g><!--class Round--><g id="elem_Round"><rect codeLine="32" fill="#F1F1F1" height="188.9688" id="Round" rx="2.5" ry="2.5" style="stroke:#181818;stroke-width:0.5;" width="716" x="119.88" y="591"/><text fill="#000000" font-family="sans-serif" font-size="14" font-weight="bold" lengthAdjust="spacing" textLength="51" x="452.38" y="608.9951">Round</text><line style="stroke:#181818;stroke-width:0.5;" x1="120.88" x2="834.88" y1="617.2969" y2="617.2969"/><text fill="#000000" font-family="sans-serif" font-size="14" font-weight="bold" lengthAdjust="spacing" textLength="191" x="125.88" y="634.292">-_NBATTEMPTS: Integer</text><line style="stroke:#181818;stroke-width:0.5;" x1="120.88" x2="834.88" y1="641.5938" y2="641.5938"/><text fill="#000000" font-family="sans-serif" font-size="14" font-weight="bold" lengthAdjust="spacing" textLength="704" x="125.88" y="658.5889">+Round(nbAttempts: Integer, nbColorsInCombination: Integer, gameMode: GameMode)</text><text fill="#000000" font-family="sans-serif" font-size="14" font-weight="bold" lengthAdjust="spacing" textLength="121" x="125.88" y="674.8857">-nextAttempt()</text><text fill="#000000" font-family="sans-serif" font-size="14" font-weight="bold" lengthAdjust="spacing" textLength="196" x="125.88" y="691.1826">-isRoundOver(): Boolean</text><text fill="#000000" font-family="sans-serif" font-size="14" font-weight="bold" lengthAdjust="spacing" textLength="391" x="125.88" y="707.4795">+submitCombination(combination: Combination)</text><text fill="#000000" font-family="sans-serif" font-size="14" font-weight="bold" lengthAdjust="spacing" textLength="257" x="125.88" y="723.7764">+getCurrentAttempt(): Attempt</text><text fill="#000000" font-family="sans-serif" font-size="14" font-weight="bold" lengthAdjust="spacing" textLength="271" x="125.88" y="740.0732">+getCurrentAttemptNb(): Integer</text><text fill="#000000" font-family="sans-serif" font-size="14" font-weight="bold" lengthAdjust="spacing" textLength="99" x="125.88" y="756.3701">-endRound()</text><text fill="#000000" font-family="sans-serif" font-size="14" font-weight="bold" lengthAdjust="spacing" textLength="261" x="125.88" y="772.667">+calculateScoreRound(): Integer</text></g><!--class Combination--><g id="elem_Combination"><rect codeLine="43" fill="#F1F1F1" height="140.0781" id="Combination" rx="2.5" ry="2.5" style="stroke:#181818;stroke-width:0.5;" width="393" x="573.38" y="1041"/><text fill="#000000" font-family="sans-serif" font-size="14" font-weight="bold" lengthAdjust="spacing" textLength="101" x="719.38" y="1058.9951">Combination</text><line style="stroke:#181818;stroke-width:0.5;" x1="574.38" x2="965.38" y1="1067.2969" y2="1067.2969"/><text fill="#000000" font-family="sans-serif" font-size="14" font-weight="bold" lengthAdjust="spacing" textLength="301" x="579.38" y="1084.292">-_NBCOLORSINCOMBINATION: Integer</text><line style="stroke:#181818;stroke-width:0.5;" x1="574.38" x2="965.38" y1="1091.5938" y2="1091.5938"/><text fill="#000000" font-family="sans-serif" font-size="14" font-weight="bold" lengthAdjust="spacing" textLength="125" x="579.38" y="1108.5889">#Combination()</text><text fill="#000000" font-family="sans-serif" font-size="14" font-weight="bold" lengthAdjust="spacing" textLength="381" x="579.38" y="1124.8857">+Combination(nbColorsInCombination: Integer)</text><text fill="#000000" font-family="sans-serif" font-size="14" font-weight="bold" lengthAdjust="spacing" textLength="309" x="579.38" y="1141.1826">+getNbColorsInCombination(): Integer</text><text fill="#000000" font-family="sans-serif" font-size="14" font-weight="bold" lengthAdjust="spacing" textLength="256" x="579.38" y="1157.4795">+setPawns(pawns: PawnColor[])</text><text fill="#000000" font-family="sans-serif" font-size="14" font-weight="bold" lengthAdjust="spacing" textLength="208" x="579.38" y="1173.7764">+getPawns(): PawnColor[]</text></g><!--class Solution--><g id="elem_Solution"><rect codeLine="51" fill="#F1F1F1" height="140.0781" id="Solution" rx="2.5" ry="2.5" style="stroke:#181818;stroke-width:0.5;" width="512" x="286.88" y="1258"/><text fill="#000000" font-family="sans-serif" font-size="14" font-weight="bold" lengthAdjust="spacing" textLength="67" x="509.38" y="1275.9951">Solution</text><line style="stroke:#181818;stroke-width:0.5;" x1="287.88" x2="797.88" y1="1284.2969" y2="1284.2969"/><line style="stroke:#181818;stroke-width:0.5;" x1="287.88" x2="797.88" y1="1292.2969" y2="1292.2969"/><text fill="#000000" font-family="sans-serif" font-size="14" font-weight="bold" lengthAdjust="spacing" textLength="347" x="292.88" y="1309.292">+Solution(nbColorsInCombination: Integer)</text><text fill="#000000" font-family="sans-serif" font-size="14" font-weight="bold" lengthAdjust="spacing" textLength="164" x="292.88" y="1325.5889">+generateSolution()</text><text fill="#000000" font-family="sans-serif" font-size="14" font-weight="bold" lengthAdjust="spacing" textLength="500" x="292.88" y="1341.8857">+compareWithCombination(combination: Combination): Clue[]</text><text fill="#000000" font-family="sans-serif" font-size="14" font-weight="bold" lengthAdjust="spacing" textLength="374" x="292.88" y="1358.1826">+isInSolution(pawnColor: PawnColor): Boolean</text><text fill="#000000" font-family="sans-serif" font-size="14" font-weight="bold" lengthAdjust="spacing" textLength="334" x="292.88" y="1374.4795">+isSolutionFound(clues : Clue[]): Boolean</text><text fill="#000000" font-family="sans-serif" font-size="14" font-weight="bold" lengthAdjust="spacing" textLength="256" x="292.88" y="1390.7764">+sortClues(clues: Clue[]): Clue[]</text></g><!--class Attempt--><g id="elem_Attempt"><rect codeLine="59" fill="#F1F1F1" height="107.4844" id="Attempt" rx="2.5" ry="2.5" style="stroke:#181818;stroke-width:0.5;" width="512" x="155.88" y="857"/><text fill="#000000" font-family="sans-serif" font-size="14" font-weight="bold" lengthAdjust="spacing" textLength="67" x="378.38" y="874.9951">Attempt</text><line style="stroke:#181818;stroke-width:0.5;" x1="156.88" x2="666.88" y1="883.2969" y2="883.2969"/><line style="stroke:#181818;stroke-width:0.5;" x1="156.88" x2="666.88" y1="891.2969" y2="891.2969"/><text fill="#000000" font-family="sans-serif" font-size="14" font-weight="bold" lengthAdjust="spacing" textLength="500" x="161.88" y="908.292">+Attempt(combinationSubmitted: Combination, clues : Clue[])</text><text fill="#000000" font-family="sans-serif" font-size="14" font-weight="bold" lengthAdjust="spacing" textLength="348" x="161.88" y="924.5889">+getCombinationSubmitted(): Combination</text><text fill="#000000" font-family="sans-serif" font-size="14" font-weight="bold" lengthAdjust="spacing" textLength="152" x="161.88" y="940.8857">+getClues(): Clue[]</text><text fill="#000000" font-family="sans-serif" font-size="14" font-weight="bold" lengthAdjust="spacing" textLength="277" x="161.88" y="957.1826">+calculateScoreAttempt(): Integer</text></g><!--class PawnColor--><g id="elem_PawnColor"><rect codeLine="66" fill="#F1F1F1" height="178.6406" id="PawnColor" rx="2.5" ry="2.5" style="stroke:#181818;stroke-width:0.5;" width="109" x="732.38" y="1475"/><text fill="#000000" font-family="sans-serif" font-size="12" font-style="italic" lengthAdjust="spacing" textLength="49" x="762.38" y="1491.1387">«enum»</text><text fill="#000000" font-family="sans-serif" font-size="14" font-weight="bold" lengthAdjust="spacing" textLength="84" x="744.88" y="1506.9639">PawnColor</text><line style="stroke:#181818;stroke-width:0.5;" x1="733.38" x2="840.38" y1="1515.2656" y2="1515.2656"/><text fill="#000000" font-family="sans-serif" font-size="14" font-weight="bold" lengthAdjust="spacing" textLength="33" x="738.38" y="1532.2607">RED</text><text fill="#000000" font-family="sans-serif" font-size="14" font-weight="bold" lengthAdjust="spacing" textLength="54" x="738.38" y="1548.5576">GREEN</text><text fill="#000000" font-family="sans-serif" font-size="14" font-weight="bold" lengthAdjust="spacing" textLength="41" x="738.38" y="1564.8545">BLUE</text><text fill="#000000" font-family="sans-serif" font-size="14" font-weight="bold" lengthAdjust="spacing" textLength="65" x="738.38" y="1581.1514">YELLOW</text><text fill="#000000" font-family="sans-serif" font-size="14" font-weight="bold" lengthAdjust="spacing" textLength="67" x="738.38" y="1597.4482">ORANGE</text><text fill="#000000" font-family="sans-serif" font-size="14" font-weight="bold" lengthAdjust="spacing" textLength="38" x="738.38" y="1613.7451">PINK</text><text fill="#000000" font-family="sans-serif" font-size="14" font-weight="bold" lengthAdjust="spacing" textLength="97" x="738.38" y="1630.042">LIGHT_GRAY</text><text fill="#000000" font-family="sans-serif" font-size="14" font-weight="bold" lengthAdjust="spacing" textLength="79" x="738.38" y="1646.3389">MAGENTA</text></g><!--class GameMode--><g id="elem_GameMode"><rect codeLine="76" fill="#F1F1F1" height="97.1563" id="GameMode" rx="2.5" ry="2.5" style="stroke:#181818;stroke-width:0.5;" width="95" x="871.38" y="862"/><text fill="#000000" font-family="sans-serif" font-size="12" font-style="italic" lengthAdjust="spacing" textLength="49" x="894.38" y="878.1387">«enum»</text><text fill="#000000" font-family="sans-serif" font-size="14" font-weight="bold" lengthAdjust="spacing" textLength="89" x="874.38" y="893.9639">GameMode</text><line style="stroke:#181818;stroke-width:0.5;" x1="872.38" x2="965.38" y1="902.2656" y2="902.2656"/><text fill="#000000" font-family="sans-serif" font-size="14" font-weight="bold" lengthAdjust="spacing" textLength="65" x="877.38" y="919.2607">CLASSIC</text><text fill="#000000" font-family="sans-serif" font-size="14" font-weight="bold" lengthAdjust="spacing" textLength="41" x="877.38" y="935.5576">EASY</text><text fill="#000000" font-family="sans-serif" font-size="14" font-weight="bold" lengthAdjust="spacing" textLength="73" x="877.38" y="951.8545">NUMERIC</text></g><!--class Clue--><g id="elem_Clue"><rect codeLine="81" fill="#F1F1F1" height="97.1563" id="Clue" rx="2.5" ry="2.5" style="stroke:#181818;stroke-width:0.5;" width="124" x="188.88" y="1516"/><text fill="#000000" font-family="sans-serif" font-size="12" font-style="italic" lengthAdjust="spacing" textLength="49" x="226.38" y="1532.1387">«enum»</text><text fill="#000000" font-family="sans-serif" font-size="14" font-weight="bold" lengthAdjust="spacing" textLength="35" x="233.38" y="1547.9639">Clue</text><line style="stroke:#181818;stroke-width:0.5;" x1="189.88" x2="311.88" y1="1556.2656" y2="1556.2656"/><text fill="#000000" font-family="sans-serif" font-size="14" font-weight="bold" lengthAdjust="spacing" textLength="112" x="194.88" y="1573.2607">WELL_PLACED</text><text fill="#000000" font-family="sans-serif" font-size="14" font-weight="bold" lengthAdjust="spacing" textLength="91" x="194.88" y="1589.5576">MISPLACED</text><text fill="#000000" font-family="sans-serif" font-size="14" font-weight="bold" lengthAdjust="spacing" textLength="61" x="194.88" y="1605.8545">WRONG</text></g><!--reverse link Combination to Solution--><g id="link_Combination_Solution"><path d="M682.25,1195.01 C660.29,1215.8 636.97,1237.88 615.82,1257.92 " fill="none" id="Combination-backto-Solution" style="stroke:#181818;stroke-width:1.0;"/><polygon fill="none" points="677.48,1189.88,696.81,1181.21,687.1,1200.05,677.48,1189.88" style="stroke:#181818;stroke-width:1.0;"/></g><!--link MenuWindow to MenuController--><g id="link_MenuWindow_MenuController"><path codeLine="93" d="M391.31,83.06 C388.1,108.01 382.62,150.62 379.13,177.77 " fill="none" id="MenuWindow-to-MenuController" style="stroke:#181818;stroke-width:1.0;stroke-dasharray:7.0,7.0;"/><polygon fill="#181818" points="378.46,182.98,383.5604,174.5547,379.089,178.0197,375.6239,173.5483,378.46,182.98" style="stroke:#181818;stroke-width:1.0;"/><polygon fill="#000000" points="392.2422,128.5256,396.3109,119.9292,390.481,119.1795,392.2422,128.5256" style="stroke:#000000;stroke-width:1.0;"/><text fill="#000000" font-family="sans-serif" font-size="13" lengthAdjust="spacing" textLength="62" x="401.88" y="128.0669">«selects»</text></g><!--link GameWindow to GameController--><g id="link_GameWindow_GameController"><path codeLine="96" d="M542.88,83.06 C542.88,108.01 542.88,150.62 542.88,177.77 " fill="none" id="GameWindow-to-GameController" style="stroke:#181818;stroke-width:1.0;stroke-dasharray:7.0,7.0;"/><polygon fill="#181818" points="542.88,182.98,546.88,173.98,542.88,177.98,538.88,173.98,542.88,182.98" style="stroke:#181818;stroke-width:1.0;"/><polygon fill="#000000" points="547.88,128.5664,550.8189,119.5213,544.9411,119.5213,547.88,128.5664" style="stroke:#000000;stroke-width:1.0;"/><text fill="#000000" font-family="sans-serif" font-size="13" lengthAdjust="spacing" textLength="62" x="556.88" y="128.0669">«selects»</text></g><!--link EndWindow to EndController--><g id="link_EndWindow_EndController"><path codeLine="99" d="M687.46,83.06 C690.67,108.01 696.15,150.62 699.64,177.77 " fill="none" id="EndWindow-to-EndController" style="stroke:#181818;stroke-width:1.0;stroke-dasharray:7.0,7.0;"/><polygon fill="#181818" points="700.31,182.98,703.1461,173.5483,699.681,178.0197,695.2096,174.5547,700.31,182.98" style="stroke:#181818;stroke-width:1.0;"/><polygon fill="#000000" points="698.5178,128.5256,700.279,119.1795,694.4491,119.9292,698.5178,128.5256" style="stroke:#000000;stroke-width:1.0;"/><text fill="#000000" font-family="sans-serif" font-size="13" lengthAdjust="spacing" textLength="62" x="706.88" y="128.0669">«selects»</text></g><!--link GameController to Game--><g id="link_GameController_Game"><path codeLine="104" d="M542.88,237.09 C542.88,237.09 542.88,285.04 542.88,311.74 " fill="none" id="GameController-Game" style="stroke:#181818;stroke-width:1.0;"/><polygon fill="none" points="542.88,225.09,538.88,231.09,542.88,237.09,546.88,231.09,542.88,225.09" style="stroke:#181818;stroke-width:1.0;"/><polygon fill="#181818" points="542.88,324.82,546.88,315.82,542.88,319.82,538.88,315.82,542.88,324.82" style="stroke:#181818;stroke-width:1.0;"/><line style="stroke:#181818;stroke-width:1.0;" x1="542.88" x2="542.88" y1="319.82" y2="311.82"/><polygon fill="#000000" points="547.88,270.5664,550.8189,261.5213,544.9411,261.5213,547.88,270.5664" style="stroke:#000000;stroke-width:1.0;"/><text fill="#000000" font-family="sans-serif" font-size="13" lengthAdjust="spacing" textLength="67" x="556.88" y="270.0669">«handles»</text><text fill="#000000" font-family="sans-serif" font-size="13" lengthAdjust="spacing" textLength="8" x="510.4339" y="298.8432">1</text><text fill="#000000" font-family="sans-serif" font-size="13" lengthAdjust="spacing" textLength="53" x="487.9339" y="313.976">- _game</text></g><!--link Game to Round--><g id="link_Game_Round"><path codeLine="109" d="M516.9162,525.9733 C516.9162,525.9733 508.21,561.34 504.05,578.21 " fill="none" id="Game-Round" style="stroke:#181818;stroke-width:1.0;"/><polygon fill="#181818" points="519.78,514.32,514.4637,519.192,516.9162,525.9733,522.2325,521.1012,519.78,514.32" style="stroke:#181818;stroke-width:1.0;"/><polygon fill="#181818" points="500.91,590.98,506.9486,583.1995,502.1072,586.1254,499.1812,581.2841,500.91,590.98" style="stroke:#181818;stroke-width:1.0;"/><line style="stroke:#181818;stroke-width:1.0;" x1="502.1072" x2="504.02" y1="586.1254" y2="578.36"/><polygon fill="#000000" points="515.6842,557.4213,520.7011,549.3416,514.9938,547.9358,515.6842,557.4213" style="stroke:#000000;stroke-width:1.0;"/><text fill="#000000" font-family="sans-serif" font-size="13" lengthAdjust="spacing" textLength="50" x="525.88" y="557.0669">«owns»</text><text fill="#000000" font-family="sans-serif" font-size="13" lengthAdjust="spacing" textLength="24" x="458.3764" y="564.6731">3..5</text><text fill="#000000" font-family="sans-serif" font-size="13" lengthAdjust="spacing" textLength="60" x="440.3764" y="579.8059">- _rounds</text></g><!--link Game to GameMode--><g id="link_Game_GameMode"><path codeLine="110" d="M770.92,514.21 C802.51,535.47 831.69,560.89 853.88,591 C912.15,670.02 921.24,788.73 921.09,856.69 " fill="none" id="Game-to-GameMode" style="stroke:#181818;stroke-width:1.0;stroke-dasharray:7.0,7.0;"/><polygon fill="#181818" points="921.06,861.9,925.1114,852.923,921.0886,856.9001,917.1115,852.8773,921.06,861.9" style="stroke:#181818;stroke-width:1.0;"/><polygon fill="#000000" points="922.8879,690.1455,921.9472,680.6816,916.5641,683.042,922.8879,690.1455" style="stroke:#000000;stroke-width:1.0;"/><text fill="#000000" font-family="sans-serif" font-size="13" lengthAdjust="spacing" textLength="46" x="929.88" y="690.0669">«uses»</text></g><!--link Round to Solution--><g id="link_Round_Solution"><path codeLine="113" d="M635.5485,788.4589 C635.5485,788.4589 674.03,831.95 685.88,857 C706.23,899.98 709.43,922.68 685.88,964 C652.63,1022.34 590.45,983.43 555.88,1041 C519.24,1102.04 519.53,1184.31 526.9,1244.94 " fill="none" id="Round-Solution" style="stroke:#181818;stroke-width:1.0;"/><polygon fill="#181818" points="626.9,780.14,628.4513,787.1823,635.5485,788.4589,633.9972,781.4166,626.9,780.14" style="stroke:#181818;stroke-width:1.0;"/><polygon fill="#181818" points="528.62,1257.93,531.3982,1248.4811,527.9606,1252.9737,523.4681,1249.5361,528.62,1257.93" style="stroke:#181818;stroke-width:1.0;"/><line style="stroke:#181818;stroke-width:1.0;" x1="527.9606" x2="526.91" y1="1252.9737" y2="1245.04"/><polygon fill="#000000" points="655.7223,1007.4305,660.6757,999.3117,654.9576,997.9508,655.7223,1007.4305" style="stroke:#000000;stroke-width:1.0;"/><text fill="#000000" font-family="sans-serif" font-size="13" lengthAdjust="spacing" textLength="50" x="665.88" y="1007.0669">«owns»</text><text fill="#000000" font-family="sans-serif" font-size="13" lengthAdjust="spacing" textLength="8" x="477.8054" y="1231.8976">1</text><text fill="#000000" font-family="sans-serif" font-size="13" lengthAdjust="spacing" textLength="83" x="440.3054" y="1247.0304">- _SOLUTION</text></g><!--link Round to Attempt--><g id="link_Round_Attempt"><path codeLine="114" d="M446.7754,791.6069 C446.7754,791.6069 435.98,828.08 431.2,844.24 " fill="none" id="Round-Attempt" style="stroke:#181818;stroke-width:1.0;"/><polygon fill="#181818" points="450.18,780.1,444.6421,784.7186,446.7754,791.6069,452.3134,786.9883,450.18,780.1" style="stroke:#181818;stroke-width:1.0;"/><polygon fill="#181818" points="427.47,856.83,433.867,849.3414,428.8936,852.037,426.1981,847.0636,427.47,856.83" style="stroke:#181818;stroke-width:1.0;"/><line style="stroke:#181818;stroke-width:1.0;" x1="428.8936" x2="431.16" y1="852.037" y2="844.365"/><polygon fill="#000000" points="444.4612,823.3609,449.846,815.5215,444.2097,813.8536,444.4612,823.3609" style="stroke:#000000;stroke-width:1.0;"/><text fill="#000000" font-family="sans-serif" font-size="13" lengthAdjust="spacing" textLength="50" x="454.88" y="823.0669">«owns»</text><text fill="#000000" font-family="sans-serif" font-size="13" lengthAdjust="spacing" textLength="40" x="367.4367" y="830.9443">10..12</text><text fill="#000000" font-family="sans-serif" font-size="13" lengthAdjust="spacing" textLength="75" x="349.9367" y="846.0771">- _attempts</text></g><!--link Round to GameMode--><g id="link_Round_GameMode"><path codeLine="115" d="M736.3362,785.3171 C736.3362,785.3171 769.04,801.71 783.88,810 C810.45,824.84 837.82,844.14 860.91,861.79 " fill="none" id="Round-GameMode" style="stroke:#181818;stroke-width:1.0;"/><polygon fill="#181818" points="725.52,780.12,729.1958,786.3239,736.3362,785.3171,732.6605,779.1131,725.52,780.12" style="stroke:#181818;stroke-width:1.0;"/><polygon fill="#181818" points="871.2,869.76,866.529,861.0892,867.2453,866.7006,861.6339,867.4168,871.2,869.76" style="stroke:#181818;stroke-width:1.0;"/><line style="stroke:#181818;stroke-width:1.0;" x1="867.2453" x2="860.925" y1="866.7006" y2="861.8"/><polygon fill="#000000" points="820.1412,821.1822,813.9702,813.9455,810.8951,818.9548,820.1412,821.1822" style="stroke:#000000;stroke-width:1.0;"/><text fill="#000000" font-family="sans-serif" font-size="13" lengthAdjust="spacing" textLength="50" x="824.88" y="823.0669">«owns»</text><text fill="#000000" font-family="sans-serif" font-size="13" lengthAdjust="spacing" textLength="8" x="812.9007" y="847.2155">1</text><text fill="#000000" font-family="sans-serif" font-size="13" lengthAdjust="spacing" textLength="93" x="770.4007" y="862.3483">- _GAMEMODE</text></g><!--link Round to Combination--><g id="link_Round_Combination"><path codeLine="116" d="M685.5,780.03 C695.61,789.19 704.86,799.17 712.88,810 C761.31,875.4 772.16,970.23 773.08,1035.69 " fill="none" id="Round-to-Combination" style="stroke:#181818;stroke-width:1.0;stroke-dasharray:7.0,7.0;"/><polygon fill="#181818" points="773.13,1040.74,777.0269,1031.6949,773.0729,1035.7403,769.0274,1031.7863,773.13,1040.74" style="stroke:#181818;stroke-width:1.0;"/><polygon fill="#000000" points="773.5004,915.2966,773.3494,905.7872,767.7888,907.6921,773.5004,915.2966" style="stroke:#000000;stroke-width:1.0;"/><text fill="#000000" font-family="sans-serif" font-size="13" lengthAdjust="spacing" textLength="46" x="780.88" y="915.0669">«uses»</text></g><!--link Round to Clue--><g id="link_Round_Clue"><path codeLine="117" d="M212.68,780.19 C183.05,801.06 156.79,826.38 137.88,857 C6,1070.68 152.86,1387.43 220.48,1511.23 " fill="none" id="Round-to-Clue" style="stroke:#181818;stroke-width:1.0;stroke-dasharray:7.0,7.0;"/><polygon fill="#181818" points="223.05,1515.91,222.2385,1506.0946,220.6497,1511.5238,215.2206,1509.9351,223.05,1515.91" style="stroke:#181818;stroke-width:1.0;"/><polygon fill="#000000" points="101.9333,1116.0661,104.7756,1106.9902,98.8981,1107.0529,101.9333,1116.0661" style="stroke:#000000;stroke-width:1.0;"/><text fill="#000000" font-family="sans-serif" font-size="13" lengthAdjust="spacing" textLength="46" x="110.88" y="1115.5669">«uses»</text></g><!--link Combination to PawnColor--><g id="link_Combination_PawnColor"><path codeLine="120" d="M800.7095,1192.509 C800.7095,1192.509 813.55,1236.76 816.88,1258 C827.51,1325.69 819.9,1402.44 809.68,1462.08 " fill="none" id="Combination-PawnColor" style="stroke:#181818;stroke-width:1.0;"/><polygon fill="none" points="796.99,1181.1,795.0467,1188.0443,800.7095,1192.509,802.6527,1185.5647,796.99,1181.1" style="stroke:#181818;stroke-width:1.0;"/><polygon fill="#181818" points="807.4,1474.92,812.911,1466.7573,808.2736,1469.9969,805.0341,1465.3595,807.4,1474.92" style="stroke:#181818;stroke-width:1.0;"/><line style="stroke:#181818;stroke-width:1.0;" x1="808.2736" x2="809.68" y1="1469.9969" y2="1462.125"/><polygon fill="#000000" points="827.0463,1333.0636,829.6828,1323.9258,823.8082,1324.1213,827.0463,1333.0636" style="stroke:#000000;stroke-width:1.0;"/><text fill="#000000" font-family="sans-serif" font-size="13" lengthAdjust="spacing" textLength="71" x="835.88" y="1332.5669">«contains»</text><text fill="#000000" font-family="sans-serif" font-size="13" lengthAdjust="spacing" textLength="24" x="757.0867" y="1448.6781">4..6</text><text fill="#000000" font-family="sans-serif" font-size="13" lengthAdjust="spacing" textLength="70" x="736.0867" y="1463.8109"># _PAWNS</text></g><!--link Solution to PawnColor--><g id="link_Solution_PawnColor"><path codeLine="123" d="M614.77,1398.09 C650.99,1432.89 694.33,1474.55 728.46,1507.35 " fill="none" id="Solution-to-PawnColor" style="stroke:#181818;stroke-width:1.0;stroke-dasharray:7.0,7.0;"/><polygon fill="#181818" points="732.15,1510.9,728.4111,1501.7884,728.5368,1507.4439,722.8813,1507.5696,732.15,1510.9" style="stroke:#181818;stroke-width:1.0;"/><polygon fill="#000000" points="665.4851,1440.031,660.9999,1431.6445,656.927,1435.8825,665.4851,1440.031" style="stroke:#000000;stroke-width:1.0;"/><text fill="#000000" font-family="sans-serif" font-size="13" lengthAdjust="spacing" textLength="46" x="670.88" y="1441.0669">«uses»</text></g><!--link Solution to Clue--><g id="link_Solution_Clue"><path codeLine="124" d="M456.85,1398.09 C411.22,1434.74 356.13,1478.98 314.41,1512.48 " fill="none" id="Solution-to-Clue" style="stroke:#181818;stroke-width:1.0;stroke-dasharray:7.0,7.0;"/><polygon fill="#181818" points="310.42,1515.69,319.9432,1513.1785,314.3202,1512.5613,314.9373,1506.9382,310.42,1515.69" style="stroke:#181818;stroke-width:1.0;"/><polygon fill="#000000" points="414.9815,1439.6972,423.8742,1436.325,420.1937,1431.7421,414.9815,1439.6972" style="stroke:#000000;stroke-width:1.0;"/><text fill="#000000" font-family="sans-serif" font-size="13" lengthAdjust="spacing" textLength="46" x="427.88" y="1441.0669">«uses»</text></g><!--link Attempt to Combination--><g id="link_Attempt_Combination"><path codeLine="127" d="M465.0855,972.535 C465.0855,972.535 495.68,1000.51 511.88,1011 C527.43,1021.06 544.15,1030.34 561.33,1038.85 " fill="none" id="Attempt-Combination" style="stroke:#181818;stroke-width:1.0;"/><polygon fill="#181818" points="456.62,964.03,458.0177,971.1043,465.0855,972.535,463.6878,965.4607,456.62,964.03" style="stroke:#181818;stroke-width:1.0;"/><polygon fill="#181818" points="573.3,1044.61,566.9276,1037.1005,568.7954,1042.4401,563.4558,1044.3079,573.3,1044.61" style="stroke:#181818;stroke-width:1.0;"/><line style="stroke:#181818;stroke-width:1.0;" x1="568.7954" x2="561.585" y1="1042.4401" y2="1038.97"/><polygon fill="#000000" points="520.9973,1005.4033,515.2165,997.8512,511.8816,1002.6914,520.9973,1005.4033" style="stroke:#000000;stroke-width:1.0;"/><text fill="#000000" font-family="sans-serif" font-size="13" lengthAdjust="spacing" textLength="50" x="525.88" y="1007.0669">«owns»</text><text fill="#000000" font-family="sans-serif" font-size="13" lengthAdjust="spacing" textLength="8" x="465.0151" y="1024.5175">1</text><text fill="#000000" font-family="sans-serif" font-size="13" lengthAdjust="spacing" textLength="193" x="372.5151" y="1039.6503">- _COMBINATION_SUBMITTED</text></g><!--link Attempt to Clue--><g id="link_Attempt_Clue"><path codeLine="128" d="M378.1403,974.9713 C378.1403,974.9713 292.39,1155.37 268.88,1258 C249.8,1341.35 247.59,1440.64 248.59,1502.89 " fill="none" id="Attempt-Clue" style="stroke:#181818;stroke-width:1.0;"/><polygon fill="#181818" points="383.57,964.27,377.288,967.8107,378.1403,974.9713,384.4222,971.4306,383.57,964.27" style="stroke:#181818;stroke-width:1.0;"/><polygon fill="#181818" points="248.86,1515.97,252.6713,1506.8885,248.7556,1510.9711,244.673,1507.0555,248.86,1515.97" style="stroke:#181818;stroke-width:1.0;"/><line style="stroke:#181818;stroke-width:1.0;" x1="248.7556" x2="248.59" y1="1510.9711" y2="1502.975"/><polygon fill="#000000" points="284.6884,1224.4223,289.6983,1216.3383,283.9898,1214.9375,284.6884,1224.4223" style="stroke:#000000;stroke-width:1.0;"/><text fill="#000000" font-family="sans-serif" font-size="13" lengthAdjust="spacing" textLength="50" x="294.88" y="1224.0669">«owns»</text><text fill="#000000" font-family="sans-serif" font-size="13" lengthAdjust="spacing" textLength="8" x="211.8856" y="1489.9041">1</text><text fill="#000000" font-family="sans-serif" font-size="13" lengthAdjust="spacing" textLength="58" x="186.8856" y="1505.0369">- _CLUES</text></g><!--SRC=[jLPRZvj657xdLupSXtYpMIlfxS6AB64lSL4CM63NZPhAmZ3THO4PYncoRQFyzvuPO3XWl6eVuWVRSoxVkNnpEU9Jnivn6HT4oBzp2jzbbiYgo2rXD4aU2s5Bq9mgITs4ioZxXvBNGvDtdCb8eonvdbgFMKe9PLL12YeVUIfgISOaBV-C4qhY5b9OrZbEFiKFb7pEw9CWNom27mrAF80uP2pbJ-JBLoHVnmKTapiixSHVEsH8MvOypsbvYRyokiiOrtGGfwz2iGgUqhmVHa4r0lMv8qT_6GPx_pxoxD_cn8MkFD3Iw6-rmvITGbwnL1Y36sJ1w5zIgy4CwA75MNQ6hmWxhNZEI-6o5IzE6OjbnXdIFq003nATwr3gtmrABnDA6docvVHc3eJodCOCwPEInfBwtow5M_90vQegIygQ4927_dFTn3yfes4lxs0NfhgT63s9ywJAeOOeuIMjrNrVpBQ67_9dxtQEjzr5O_HzCs8Kwmtej4-O3dcDiLiYgbEHIHHock3mI35EWWaw9ytVvyoUeQ9XyoeNXkrhPA1KXvIiWaqGHgw_2hobwzixD_0li_WE8_GImVBdQHhqo1yp7ki0y43bDdvYOdfMttEY5jhvzpy6eBNPJS_aeXaHpolT2TWNqDnhtRarXl-hC4PBHKlhsYED5t3vmnqi7__Jfe9LNj6cWXeYWnmCzhaj4jKxkf4pqVgyqpib0LX1MlZnlSzBgTIYDaQsA2VSrMONznhO7W1KOQJFbAHfhzHNP93IuA2C-2kMaNpWe3CVQs3_uA0JsZyw-aS_nQQpvErR9LWiK8cXSs_-hqF7ySrgkTaxPl71sMo2Wra6eUslE-tMzT-RnSPT_x8xhaFxWn5vzjhnTpRgk4wilUh6ybfjx2XoLsRjs567v-yz9soK24-rQWph0CaVjnjxXMhrt6WWEOI1lsuWeNqlGffhNc1IUV6h6b7WjnjCB3IZp6QBuKWn9ml8HD2S9b8i5k3QpIuM6cEKws3Yk7GruutL3JhAiJ-ENFfrIj4aq4ciGLH-TxSWapSV6LofwZ6QrDDB3VeOipIdDQYdvvm6JwEGbzhtXzdi9-rUwl5bqhoVDGA7MmtSjNbRiwQ-LbUYGQyV-zhp9Kef2ZPxTR5Fkhkl1zppU3sRlVbUkyNDIpmnX_kwbtPOsvxZ1VVEP9XXpqDLWA_SNX78HEt7GO7um6E8kly_pcO_VsJmM1stzi6F9kZirZXgeeqpLcErhR1CJrJKeKiJkcSpbbdxmBUTmcr1J-insYyz5wQW-yb83vesZMB0VG8LeT2DyRy0]--></g></svg>