<?xml version="1.0" encoding="UTF-8" standalone="no"?><svg xmlns="http://www.w3.org/2000/svg" xmlns:xlink="http://www.w3.org/1999/xlink" contentStyleType="text/css" height="1348px" preserveAspectRatio="none" style="width:3671px;height:1348px;background:#FFFFFF;" version="1.1" viewBox="0 0 3671 1348" width="3671px" zoomAndPan="magnify"><defs/><g><!--cluster views--><g id="cluster_views"><path d="M1303.98,207 L1349.98,207 A3.75,3.75 0 0 1 1352.48,209.5 L1359.48,229.2969 L2974.98,229.2969 A2.5,2.5 0 0 1 2977.48,231.7969 L2977.48,430.5 A2.5,2.5 0 0 1 2974.98,433 L1303.98,433 A2.5,2.5 0 0 1 1301.48,430.5 L1301.48,209.5 A2.5,2.5 0 0 1 1303.98,207 " fill="none" style="stroke:#000000;stroke-width:1.5;"/><line style="stroke:#000000;stroke-width:1.5;" x1="1301.48" x2="1359.48" y1="229.2969" y2="229.2969"/><text fill="#000000" font-family="sans-serif" font-size="14" font-weight="bold" lengthAdjust="spacing" textLength="45" x="1305.48" y="221.9951">views</text></g><!--cluster models--><g id="cluster_models"><path d="M274.98,482 L333.98,482 A3.75,3.75 0 0 1 336.48,484.5 L343.48,504.2969 L2351.98,504.2969 A2.5,2.5 0 0 1 2354.48,506.7969 L2354.48,1338.5 A2.5,2.5 0 0 1 2351.98,1341 L274.98,1341 A2.5,2.5 0 0 1 272.48,1338.5 L272.48,484.5 A2.5,2.5 0 0 1 274.98,482 " fill="none" style="stroke:#000000;stroke-width:1.5;"/><line style="stroke:#000000;stroke-width:1.5;" x1="272.48" x2="343.48" y1="504.2969" y2="504.2969"/><text fill="#000000" font-family="sans-serif" font-size="14" font-weight="bold" lengthAdjust="spacing" textLength="58" x="276.48" y="496.9951">models</text></g><!--cluster controllers--><g id="cluster_controllers"><path d="M2380.98,482 L2468.98,482 A3.75,3.75 0 0 1 2471.48,484.5 L2478.48,504.2969 L3661.98,504.2969 A2.5,2.5 0 0 1 3664.48,506.7969 L3664.48,738.5 A2.5,2.5 0 0 1 3661.98,741 L2380.98,741 A2.5,2.5 0 0 1 2378.48,738.5 L2378.48,484.5 A2.5,2.5 0 0 1 2380.98,482 " fill="none" style="stroke:#000000;stroke-width:1.5;"/><line style="stroke:#000000;stroke-width:1.5;" x1="2378.48" x2="2478.48" y1="504.2969" y2="504.2969"/><text fill="#000000" font-family="sans-serif" font-size="14" font-weight="bold" lengthAdjust="spacing" textLength="87" x="2382.48" y="496.9951">controllers</text></g><!--class MenuWindow--><g id="elem_MenuWindow"><rect codeLine="16" fill="#D3D3D3" height="58.5938" id="MenuWindow" rx="2.5" ry="2.5" style="stroke:#181818;stroke-width:0.5;" width="533" x="1887.98" y="309.5"/><text fill="#000000" font-family="sans-serif" font-size="14" font-weight="bold" lengthAdjust="spacing" textLength="107" x="2100.98" y="327.4951">MenuWindow</text><line style="stroke:#181818;stroke-width:0.5;" x1="1888.98" x2="2419.98" y1="335.7969" y2="335.7969"/><line style="stroke:#181818;stroke-width:0.5;" x1="1888.98" x2="2419.98" y1="343.7969" y2="343.7969"/><text fill="#000000" font-family="sans-serif" font-size="14" font-weight="bold" lengthAdjust="spacing" textLength="521" x="1893.98" y="360.792">+MenuWindow(gameController : GameController) : MenuWindow</text></g><!--class GameWindow--><g id="elem_GameWindow"><rect codeLine="20" fill="#D3D3D3" height="156.375" id="GameWindow" rx="2.5" ry="2.5" style="stroke:#181818;stroke-width:0.5;" width="535" x="1317.98" y="261"/><text fill="#000000" font-family="sans-serif" font-size="14" font-weight="bold" lengthAdjust="spacing" textLength="108" x="1531.48" y="278.9951">GameWindow</text><line style="stroke:#181818;stroke-width:0.5;" x1="1318.98" x2="1851.98" y1="287.2969" y2="287.2969"/><text fill="#000000" font-family="sans-serif" font-size="14" font-weight="bold" lengthAdjust="spacing" textLength="197" x="1323.98" y="304.292">-_attemptIndex : Integer</text><text fill="#000000" font-family="sans-serif" font-size="14" font-weight="bold" lengthAdjust="spacing" textLength="174" x="1323.98" y="320.5889">-_isNumeric : Boolean</text><line style="stroke:#181818;stroke-width:0.5;" x1="1318.98" x2="1851.98" y1="327.8906" y2="327.8906"/><text fill="#000000" font-family="sans-serif" font-size="14" font-weight="bold" lengthAdjust="spacing" textLength="523" x="1323.98" y="344.8857">+GameWindow(gameController : GameController) : GameWindow</text><text fill="#000000" font-family="sans-serif" font-size="14" font-weight="bold" lengthAdjust="spacing" textLength="344" x="1323.98" y="361.1826">+onAttemptPerformed(attempt : Attempt)</text><text fill="#000000" font-family="sans-serif" font-size="14" font-weight="bold" lengthAdjust="spacing" textLength="163" x="1323.98" y="377.4795">+onRoundFinished()</text><text fill="#000000" font-family="sans-serif" font-size="14" font-weight="bold" lengthAdjust="spacing" textLength="111" x="1323.98" y="393.7764">-resetRound()</text><text fill="#000000" font-family="sans-serif" font-size="14" font-weight="bold" lengthAdjust="spacing" textLength="224" x="1323.98" y="410.0732">+onGameFinished()Attempt</text></g><!--class EndWindow--><g id="elem_EndWindow"><rect codeLine="30" fill="#D3D3D3" height="58.5938" id="EndWindow" rx="2.5" ry="2.5" style="stroke:#181818;stroke-width:0.5;" width="505" x="2455.98" y="309.5"/><text fill="#000000" font-family="sans-serif" font-size="14" font-weight="bold" lengthAdjust="spacing" textLength="93" x="2661.98" y="327.4951">EndWindow</text><line style="stroke:#181818;stroke-width:0.5;" x1="2456.98" x2="2959.98" y1="335.7969" y2="335.7969"/><line style="stroke:#181818;stroke-width:0.5;" x1="2456.98" x2="2959.98" y1="343.7969" y2="343.7969"/><text fill="#000000" font-family="sans-serif" font-size="14" font-weight="bold" lengthAdjust="spacing" textLength="493" x="2461.98" y="360.792">+EndWindow(gameController : GameController) : EndWindow</text></g><!--class models.GameObserver--><g id="elem_models.GameObserver"><rect codeLine="93" fill="#90EE90" height="97.1563" id="models.GameObserver" rx="2.5" ry="2.5" style="stroke:#181818;stroke-width:0.5;" width="356" x="1149.48" y="582"/><text fill="#000000" font-family="sans-serif" font-size="12" font-style="italic" lengthAdjust="spacing" textLength="67" x="1293.98" y="598.1387">«interface»</text><text fill="#000000" font-family="sans-serif" font-size="14" font-style="italic" font-weight="bold" lengthAdjust="spacing" textLength="118" x="1268.48" y="613.9639">GameObserver</text><line style="stroke:#181818;stroke-width:0.5;" x1="1150.48" x2="1504.48" y1="622.2656" y2="622.2656"/><text fill="#000000" font-family="sans-serif" font-size="14" font-weight="bold" lengthAdjust="spacing" textLength="344" x="1155.48" y="639.2607">+onAttemptPerformed(attempt : Attempt)</text><text fill="#000000" font-family="sans-serif" font-size="14" font-weight="bold" lengthAdjust="spacing" textLength="163" x="1155.48" y="655.5576">+onRoundFinished()</text><text fill="#000000" font-family="sans-serif" font-size="14" font-weight="bold" lengthAdjust="spacing" textLength="157" x="1155.48" y="671.8545">+onGameFinished()</text></g><!--class models.Game--><g id="elem_models.Game"><rect codeLine="54" fill="#D3D3D3" height="188.9688" id="models.Game" rx="2.5" ry="2.5" style="stroke:#181818;stroke-width:0.5;" width="762" x="288.48" y="536"/><text fill="#000000" font-family="sans-serif" font-size="14" font-weight="bold" lengthAdjust="spacing" textLength="45" x="646.98" y="553.9951">Game</text><line style="stroke:#181818;stroke-width:0.5;" x1="289.48" x2="1049.48" y1="562.2969" y2="562.2969"/><text fill="#000000" font-family="sans-serif" font-size="14" font-weight="bold" lengthAdjust="spacing" textLength="198" x="294.48" y="579.292">-_currentRound : Integer</text><line style="stroke:#181818;stroke-width:0.5;" x1="289.48" x2="1049.48" y1="586.5938" y2="586.5938"/><text fill="#000000" font-family="sans-serif" font-size="14" font-weight="bold" lengthAdjust="spacing" textLength="284" x="294.48" y="603.5889">+Game(nbRounds : Integer) : Game</text><text fill="#000000" font-family="sans-serif" font-size="14" font-weight="bold" lengthAdjust="spacing" textLength="260" x="294.48" y="619.8857">+calculateScoreGame() : Integer</text><text fill="#000000" font-family="sans-serif" font-size="14" font-weight="bold" lengthAdjust="spacing" textLength="750" x="294.48" y="636.1826">+nextRound(nbAttempts : Integer, nbColorsInCombination : Integer,gameMode : GameMode)</text><text fill="#000000" font-family="sans-serif" font-size="14" font-weight="bold" lengthAdjust="spacing" textLength="449" x="294.48" y="652.4795">+public submitCombination(combination : Combination)</text><text fill="#000000" font-family="sans-serif" font-size="14" font-weight="bold" lengthAdjust="spacing" textLength="377" x="294.48" y="668.7764">+addObserver(gameObserver : GameObserver)</text><text fill="#000000" font-family="sans-serif" font-size="14" font-weight="bold" lengthAdjust="spacing" textLength="365" x="294.48" y="685.0732">-notifyAttemptPerformed(attempt : Attempt)</text><text fill="#000000" font-family="sans-serif" font-size="14" font-weight="bold" lengthAdjust="spacing" textLength="184" x="294.48" y="701.3701">-notifyRoundFinished()</text><text fill="#000000" font-family="sans-serif" font-size="14" font-weight="bold" lengthAdjust="spacing" textLength="178" x="294.48" y="717.667">-notifyGameFinished()</text></g><!--class models.Round--><g id="elem_models.Round"><rect codeLine="67" fill="#D3D3D3" height="107.4844" id="models.Round" rx="2.5" ry="2.5" style="stroke:#181818;stroke-width:0.5;" width="798" x="1540.48" y="577"/><text fill="#000000" font-family="sans-serif" font-size="14" font-weight="bold" lengthAdjust="spacing" textLength="51" x="1913.98" y="594.9951">Round</text><line style="stroke:#181818;stroke-width:0.5;" x1="1541.48" x2="2337.48" y1="603.2969" y2="603.2969"/><text fill="#000000" font-family="sans-serif" font-size="14" font-weight="bold" lengthAdjust="spacing" textLength="142" x="1546.48" y="620.292">-_isWon : Boolean</text><line style="stroke:#181818;stroke-width:0.5;" x1="1541.48" x2="2337.48" y1="627.5938" y2="627.5938"/><text fill="#000000" font-family="sans-serif" font-size="14" font-weight="bold" lengthAdjust="spacing" textLength="786" x="1546.48" y="644.5889">+Round(nbAttempts : Integer, nbColorsInCombination : Integer, gameMode : GameMode) : Round</text><text fill="#000000" font-family="sans-serif" font-size="14" font-weight="bold" lengthAdjust="spacing" textLength="266" x="1546.48" y="660.8857">+calculateScoreRound() : Integer</text><text fill="#000000" font-family="sans-serif" font-size="14" font-weight="bold" lengthAdjust="spacing" textLength="479" x="1546.48" y="677.1826">+submitCombination(combination : Combination) : Attempt</text></g><!--class models.Attempt--><g id="elem_models.Attempt"><rect codeLine="75" fill="#D3D3D3" height="74.8906" id="models.Attempt" rx="2.5" ry="2.5" style="stroke:#181818;stroke-width:0.5;" width="600" x="1738.48" y="815"/><text fill="#000000" font-family="sans-serif" font-size="14" font-weight="bold" lengthAdjust="spacing" textLength="67" x="2004.98" y="832.9951">Attempt</text><line style="stroke:#181818;stroke-width:0.5;" x1="1739.48" x2="2337.48" y1="841.2969" y2="841.2969"/><line style="stroke:#181818;stroke-width:0.5;" x1="1739.48" x2="2337.48" y1="849.2969" y2="849.2969"/><text fill="#000000" font-family="sans-serif" font-size="14" font-weight="bold" lengthAdjust="spacing" textLength="588" x="1744.48" y="866.292">+Attempt(combinationSubmitted : Combination, clues : Clue[]) : Attempt</text><text fill="#000000" font-family="sans-serif" font-size="14" font-weight="bold" lengthAdjust="spacing" textLength="99" x="1744.48" y="882.5889">+sortClues()</text></g><!--class models.Combination--><g id="elem_models.Combination"><rect codeLine="81" fill="#D3D3D3" height="74.8906" id="models.Combination" rx="2.5" ry="2.5" style="stroke:#181818;stroke-width:0.5;" width="467" x="869.98" y="815"/><text fill="#000000" font-family="sans-serif" font-size="14" font-weight="bold" lengthAdjust="spacing" textLength="101" x="1052.98" y="832.9951">Combination</text><line style="stroke:#181818;stroke-width:0.5;" x1="870.98" x2="1335.98" y1="841.2969" y2="841.2969"/><text fill="#000000" font-family="sans-serif" font-size="14" font-weight="bold" lengthAdjust="spacing" textLength="280" x="875.98" y="858.292">+_nbColorsInCombination : Integer</text><line style="stroke:#181818;stroke-width:0.5;" x1="870.98" x2="1335.98" y1="865.5938" y2="865.5938"/><text fill="#000000" font-family="sans-serif" font-size="14" font-weight="bold" lengthAdjust="spacing" textLength="455" x="875.98" y="882.5889">+Combination(int nbColorsInCombination) : Combination</text></g><!--class models.Solution--><g id="elem_models.Solution"><rect codeLine="87" fill="#D3D3D3" height="91.1875" id="models.Solution" rx="2.5" ry="2.5" style="stroke:#181818;stroke-width:0.5;" width="522" x="950.48" y="978"/><text fill="#000000" font-family="sans-serif" font-size="14" font-weight="bold" lengthAdjust="spacing" textLength="67" x="1177.98" y="995.9951">Solution</text><line style="stroke:#181818;stroke-width:0.5;" x1="951.48" x2="1471.48" y1="1004.2969" y2="1004.2969"/><line style="stroke:#181818;stroke-width:0.5;" x1="951.48" x2="1471.48" y1="1012.2969" y2="1012.2969"/><text fill="#000000" font-family="sans-serif" font-size="14" font-weight="bold" lengthAdjust="spacing" textLength="435" x="956.48" y="1029.292">+Solution(nbColorsInCombination : Integer) : Solution</text><text fill="#000000" font-family="sans-serif" font-size="14" font-weight="bold" lengthAdjust="spacing" textLength="164" x="956.48" y="1045.5889">+generateSolution()</text><text fill="#000000" font-family="sans-serif" font-size="14" font-weight="bold" lengthAdjust="spacing" textLength="510" x="956.48" y="1061.8857">+compareWithCombination(combination : Combination) : Clue[]</text></g><!--class models.Clue--><g id="elem_models.Clue"><rect codeLine="99" fill="#FFA500" height="97.1563" id="models.Clue" rx="2.5" ry="2.5" style="stroke:#181818;stroke-width:0.5;" width="136" x="1440.48" y="1187"/><text fill="#000000" font-family="sans-serif" font-size="12" font-style="italic" lengthAdjust="spacing" textLength="49" x="1483.98" y="1203.1387">«enum»</text><text fill="#000000" font-family="sans-serif" font-size="14" font-weight="bold" lengthAdjust="spacing" textLength="35" x="1490.98" y="1218.9639">Clue</text><line style="stroke:#181818;stroke-width:0.5;" x1="1441.48" x2="1575.48" y1="1227.2656" y2="1227.2656"/><text fill="#000000" font-family="sans-serif" font-size="14" font-weight="bold" lengthAdjust="spacing" textLength="124" x="1446.48" y="1244.2607">+WELL_PLACED</text><text fill="#000000" font-family="sans-serif" font-size="14" font-weight="bold" lengthAdjust="spacing" textLength="103" x="1446.48" y="1260.5576">+MISPLACED</text><text fill="#000000" font-family="sans-serif" font-size="14" font-weight="bold" lengthAdjust="spacing" textLength="73" x="1446.48" y="1276.8545">+WRONG</text></g><!--class models.GameMode--><g id="elem_models.GameMode"><rect codeLine="105" fill="#FFA500" height="97.1563" id="models.GameMode" rx="2.5" ry="2.5" style="stroke:#181818;stroke-width:0.5;" width="97" x="620.98" y="804"/><text fill="#000000" font-family="sans-serif" font-size="12" font-style="italic" lengthAdjust="spacing" textLength="49" x="644.98" y="820.1387">«enum»</text><text fill="#000000" font-family="sans-serif" font-size="14" font-weight="bold" lengthAdjust="spacing" textLength="89" x="624.98" y="835.9639">GameMode</text><line style="stroke:#181818;stroke-width:0.5;" x1="621.98" x2="716.98" y1="844.2656" y2="844.2656"/><text fill="#000000" font-family="sans-serif" font-size="14" font-weight="bold" lengthAdjust="spacing" textLength="77" x="626.98" y="861.2607">+CLASSIC</text><text fill="#000000" font-family="sans-serif" font-size="14" font-weight="bold" lengthAdjust="spacing" textLength="53" x="626.98" y="877.5576">+EASY</text><text fill="#000000" font-family="sans-serif" font-size="14" font-weight="bold" lengthAdjust="spacing" textLength="85" x="626.98" y="893.8545">+NUMERIC</text></g><!--class models.PawnColor--><g id="elem_models.PawnColor"><rect codeLine="111" fill="#FFA500" height="178.6406" id="models.PawnColor" rx="2.5" ry="2.5" style="stroke:#181818;stroke-width:0.5;" width="121" x="959.98" y="1146"/><text fill="#000000" font-family="sans-serif" font-size="12" font-style="italic" lengthAdjust="spacing" textLength="49" x="995.98" y="1162.1387">«enum»</text><text fill="#000000" font-family="sans-serif" font-size="14" font-weight="bold" lengthAdjust="spacing" textLength="84" x="978.48" y="1177.9639">PawnColor</text><line style="stroke:#181818;stroke-width:0.5;" x1="960.98" x2="1079.98" y1="1186.2656" y2="1186.2656"/><text fill="#000000" font-family="sans-serif" font-size="14" font-weight="bold" lengthAdjust="spacing" textLength="45" x="965.98" y="1203.2607">+RED</text><text fill="#000000" font-family="sans-serif" font-size="14" font-weight="bold" lengthAdjust="spacing" textLength="66" x="965.98" y="1219.5576">+GREEN</text><text fill="#000000" font-family="sans-serif" font-size="14" font-weight="bold" lengthAdjust="spacing" textLength="53" x="965.98" y="1235.8545">+BLUE</text><text fill="#000000" font-family="sans-serif" font-size="14" font-weight="bold" lengthAdjust="spacing" textLength="77" x="965.98" y="1252.1514">+YELLOW</text><text fill="#000000" font-family="sans-serif" font-size="14" font-weight="bold" lengthAdjust="spacing" textLength="79" x="965.98" y="1268.4482">+ORANGE</text><text fill="#000000" font-family="sans-serif" font-size="14" font-weight="bold" lengthAdjust="spacing" textLength="50" x="965.98" y="1284.7451">+PINK</text><text fill="#000000" font-family="sans-serif" font-size="14" font-weight="bold" lengthAdjust="spacing" textLength="109" x="965.98" y="1301.042">+LIGHT_GRAY</text><text fill="#000000" font-family="sans-serif" font-size="14" font-weight="bold" lengthAdjust="spacing" textLength="91" x="965.98" y="1317.3389">+MAGENTA</text></g><!--class GameController--><g id="elem_GameController"><rect codeLine="38" fill="#D3D3D3" height="188.9688" id="GameController" rx="2.5" ry="2.5" style="stroke:#181818;stroke-width:0.5;" width="1255" x="2393.98" y="536"/><text fill="#000000" font-family="sans-serif" font-size="14" font-weight="bold" lengthAdjust="spacing" textLength="126" x="2958.48" y="553.9951">GameController</text><line style="stroke:#181818;stroke-width:0.5;" x1="2394.98" x2="3647.98" y1="562.2969" y2="562.2969"/><text fill="#000000" font-family="sans-serif" font-size="14" font-weight="bold" lengthAdjust="spacing" textLength="157" x="2399.98" y="579.292">-_username : String</text><text fill="#000000" font-family="sans-serif" font-size="14" font-weight="bold" lengthAdjust="spacing" textLength="167" x="2399.98" y="595.5889">-_nbRounds : Integer</text><text fill="#000000" font-family="sans-serif" font-size="14" font-weight="bold" lengthAdjust="spacing" textLength="158" x="2399.98" y="611.8857">-_nbColors : Integer</text><text fill="#000000" font-family="sans-serif" font-size="14" font-weight="bold" lengthAdjust="spacing" textLength="274" x="2399.98" y="628.1826">-_nbColorsInCombination : Integer</text><text fill="#000000" font-family="sans-serif" font-size="14" font-weight="bold" lengthAdjust="spacing" textLength="183" x="2399.98" y="644.4795">-_nbAttempts : Integer</text><line style="stroke:#181818;stroke-width:0.5;" x1="2394.98" x2="3647.98" y1="651.7813" y2="651.7813"/><text fill="#000000" font-family="sans-serif" font-size="14" font-weight="bold" lengthAdjust="spacing" textLength="1243" x="2399.98" y="668.7764">+startGame(username : String, gameMode : GameWindow, nbRounds : Integer, nbColors : Integer, nbColorsInCombination : Integer, nbAttempts : Integer)</text><text fill="#000000" font-family="sans-serif" font-size="14" font-weight="bold" lengthAdjust="spacing" textLength="384" x="2399.98" y="685.0732">+submitCombination(pawnColors : PawnColor[])</text><text fill="#000000" font-family="sans-serif" font-size="14" font-weight="bold" lengthAdjust="spacing" textLength="111" x="2399.98" y="701.3701">+nextRound()</text><text fill="#000000" font-family="sans-serif" font-size="14" font-weight="bold" lengthAdjust="spacing" textLength="93" x="2399.98" y="717.667">-endGame()</text></g><!--class MasterMindApp--><g id="elem_MasterMindApp"><rect codeLine="124" fill="#D3D3D3" height="58.5938" id="MasterMindApp" rx="2.5" ry="2.5" style="stroke:#181818;stroke-width:0.5;" width="131" x="2520.98" y="7"/><text fill="#000000" font-family="sans-serif" font-size="14" font-weight="bold" lengthAdjust="spacing" textLength="125" x="2523.98" y="24.9951">MasterMindApp</text><line style="stroke:#181818;stroke-width:0.5;" x1="2521.98" x2="2650.98" y1="33.2969" y2="33.2969"/><line style="stroke:#181818;stroke-width:0.5;" x1="2521.98" x2="2650.98" y1="41.2969" y2="41.2969"/><text fill="#000000" font-family="sans-serif" font-size="14" font-weight="bold" lengthAdjust="spacing" textLength="63" x="2526.98" y="58.292">+main()</text></g><!--reverse link models.GameObserver to GameWindow--><g id="link_models.GameObserver_GameWindow"><path d="M1326.47,561.81 C1329.16,525.13 1338.02,480.92 1362.48,449 C1371.52,437.2 1382.18,426.6 1393.85,417.09 " fill="none" id="models.GameObserver-backto-GameWindow" style="stroke:#181818;stroke-width:1.0;stroke-dasharray:7.0,7.0;"/><polygon fill="none" points="1333.46,562.18,1325.53,581.84,1319.47,561.53,1333.46,562.18" style="stroke:#181818;stroke-width:1.0;"/></g><!--reverse link models.Combination to models.Solution--><g id="link_models.Combination_models.Solution"><path d="M1137.76,907.14 C1152.3,929.89 1169.05,956.1 1182.91,977.78 " fill="none" id="models.Combination-backto-models.Solution" style="stroke:#181818;stroke-width:1.0;"/><polygon fill="none" points="1131.79,910.79,1126.92,890.17,1143.58,903.25,1131.79,910.79" style="stroke:#181818;stroke-width:1.0;"/></g><!--link models.Game to models.Round--><g id="link_models.Game_models.Round"><path codeLine="129" d="M931.1059,532.4175 C931.1059,532.4175 1066.34,494.21 1132.48,484 C1304.22,457.48 1352.19,454.72 1523.48,484 C1622.37,500.9 1729.01,538.88 1809.56,571.93 " fill="none" id="models.Game-models.Round" style="stroke:#181818;stroke-width:1.0;"/><polygon fill="#181818" points="919.65,535.99,926.5688,538.0224,931.1059,532.4175,924.1871,530.3851,919.65,535.99" style="stroke:#181818;stroke-width:1.0;"/><polygon fill="#181818" points="1821.75,576.98,1814.9633,569.8428,1817.1299,575.0682,1811.9044,577.2349,1821.75,576.98" style="stroke:#181818;stroke-width:1.0;"/><line style="stroke:#181818;stroke-width:1.0;" x1="1817.1299" x2="1809.74" y1="575.0682" y2="572.005"/><polygon fill="#000000" points="1379.9749,457.7911,1371.0711,454.4487,1370.8069,460.3206,1379.9749,457.7911" style="stroke:#000000;stroke-width:1.0;"/><text fill="#000000" font-family="sans-serif" font-size="13" lengthAdjust="spacing" textLength="50" x="1383.98" y="462.0669">«owns»</text><text fill="#000000" font-family="sans-serif" font-size="13" lengthAdjust="spacing" textLength="24" x="1759.7454" y="550.6827">3..5</text><text fill="#000000" font-family="sans-serif" font-size="13" lengthAdjust="spacing" textLength="56" x="1747.7454" y="565.8155">-_rounds</text></g><!--link models.Game to models.GameObserver--><g id="link_models.Game_models.GameObserver"><path codeLine="130" d="M1062.81,630.5 C1062.81,630.5 1112.94,630.5 1136.07,630.5 " fill="none" id="models.Game-models.GameObserver" style="stroke:#181818;stroke-width:1.0;"/><polygon fill="#181818" points="1050.81,630.5,1056.81,634.5,1062.81,630.5,1056.81,626.5,1050.81,630.5" style="stroke:#181818;stroke-width:1.0;"/><polygon fill="#181818" points="1149.18,630.5,1140.18,626.5,1144.18,630.5,1140.18,634.5,1149.18,630.5" style="stroke:#181818;stroke-width:1.0;"/><line style="stroke:#181818;stroke-width:1.0;" x1="1144.18" x2="1136.18" y1="630.5" y2="630.5"/><polygon fill="#000000" points="1077.48,619.0664,1068.4349,616.1275,1068.4349,622.0053,1077.48,619.0664" style="stroke:#000000;stroke-width:1.0;"/><text fill="#000000" font-family="sans-serif" font-size="13" lengthAdjust="spacing" textLength="50" x="1081.48" y="623.5669">«owns»</text><text fill="#000000" font-family="sans-serif" font-size="13" lengthAdjust="spacing" textLength="23" x="1087.8348" y="643.1079">1..*</text><text fill="#000000" font-family="sans-serif" font-size="13" lengthAdjust="spacing" textLength="76" x="1065.3348" y="658.2407">-_observers</text></g><!--link models.Game to models.GameMode--><g id="link_models.Game_models.GameMode"><path codeLine="131" d="M669.48,725.12 C669.48,750.24 669.48,776.52 669.48,798.57 " fill="none" id="models.Game-to-models.GameMode" style="stroke:#181818;stroke-width:1.0;stroke-dasharray:7.0,7.0;"/><polygon fill="#181818" points="669.48,803.79,673.48,794.79,669.48,798.79,665.48,794.79,669.48,803.79" style="stroke:#181818;stroke-width:1.0;"/><polygon fill="#000000" points="674.48,770.5664,677.4189,761.5213,671.5411,761.5213,674.48,770.5664" style="stroke:#000000;stroke-width:1.0;"/><text fill="#000000" font-family="sans-serif" font-size="13" lengthAdjust="spacing" textLength="46" x="683.48" y="770.0669">«uses»</text></g><!--link models.Game to models.Combination--><g id="link_models.Game_models.Combination"><path codeLine="132" d="M854.17,725.12 C914.73,755.82 978.74,788.27 1026.73,812.59 " fill="none" id="models.Game-to-models.Combination" style="stroke:#181818;stroke-width:1.0;stroke-dasharray:7.0,7.0;"/><polygon fill="#181818" points="1031.32,814.92,1025.1174,807.2696,1026.8651,812.6497,1021.485,814.3974,1031.32,814.92" style="stroke:#181818;stroke-width:1.0;"/><polygon fill="#000000" points="946.9398,767.827,940.2007,761.1161,937.5432,766.3589,946.9398,767.827" style="stroke:#000000;stroke-width:1.0;"/><text fill="#000000" font-family="sans-serif" font-size="13" lengthAdjust="spacing" textLength="46" x="951.48" y="770.0669">«uses»</text></g><!--link models.Round to models.Solution--><g id="link_models.Round_models.Solution"><path codeLine="134" d="M1765.4839,687.4909 C1765.4839,687.4909 1603.54,733.29 1523.48,749 C1507.9,752.06 1466.08,748.8 1452.48,757 C1386.19,796.98 1406.22,843.42 1354.48,901 C1332.57,925.38 1305.79,949.37 1281.36,969.5 " fill="none" id="models.Round-models.Solution" style="stroke:#181818;stroke-width:1.0;"/><polygon fill="#181818" points="1776.98,684.05,1770.085,681.9384,1765.4839,687.4909,1772.3789,689.6025,1776.98,684.05" style="stroke:#181818;stroke-width:1.0;"/><polygon fill="#181818" points="1271.05,977.89,1280.5566,975.3161,1274.9296,974.7358,1275.5098,969.1088,1271.05,977.89" style="stroke:#181818;stroke-width:1.0;"/><line style="stroke:#181818;stroke-width:1.0;" x1="1274.9296" x2="1281.13" y1="974.7358" y2="969.69"/><polygon fill="#000000" points="1406.1596,855.0831,1415.4546,853.0698,1412.496,847.9909,1406.1596,855.0831" style="stroke:#000000;stroke-width:1.0;"/><text fill="#000000" font-family="sans-serif" font-size="13" lengthAdjust="spacing" textLength="50" x="1419.48" y="857.0669">«owns»</text><text fill="#000000" font-family="sans-serif" font-size="13" lengthAdjust="spacing" textLength="8" x="1234.486" y="951.8177">1</text><text fill="#000000" font-family="sans-serif" font-size="13" lengthAdjust="spacing" textLength="64" x="1210.486" y="966.9505">-_solution</text></g><!--link models.Round to models.Attempt--><g id="link_models.Round_models.Attempt"><path codeLine="135" d="M1741.3303,687.3166 C1741.3303,687.3166 1500.5,755.65 1499.48,757 C1494.93,763.03 1494.53,768.29 1499.48,774 C1531.36,810.79 1624.82,830.52 1725.15,840.97 " fill="none" id="models.Round-models.Attempt" style="stroke:#181818;stroke-width:1.0;"/><polygon fill="#181818" points="1752.88,684.06,1746.0196,681.8384,1741.3303,687.3166,1748.1907,689.5382,1752.88,684.06" style="stroke:#181818;stroke-width:1.0;"/><polygon fill="#181818" points="1738.38,842.29,1729.82,837.419,1733.4045,841.7952,1729.0283,845.3797,1738.38,842.29" style="stroke:#181818;stroke-width:1.0;"/><line style="stroke:#181818;stroke-width:1.0;" x1="1733.4045" x2="1725.45" y1="841.7952" y2="840.995"/><polygon fill="#000000" points="1503.9564,770.5389,1507.8264,761.8513,1501.9809,761.2358,1503.9564,770.5389" style="stroke:#000000;stroke-width:1.0;"/><text fill="#000000" font-family="sans-serif" font-size="13" lengthAdjust="spacing" textLength="50" x="1513.48" y="770.0669">«owns»</text><text fill="#000000" font-family="sans-serif" font-size="13" lengthAdjust="spacing" textLength="40" x="1670.9675" y="823.7704">10..12</text><text fill="#000000" font-family="sans-serif" font-size="13" lengthAdjust="spacing" textLength="71" x="1659.4675" y="838.9032">-_attempts</text></g><!--link models.Round to models.GameMode--><g id="link_models.Round_models.GameMode"><path codeLine="136" d="M1776.9141,687.6125 C1776.9141,687.6125 1608.18,736.18 1523.48,749 C1453.37,759.61 1275.17,751.41 1204.48,757 C1047.14,769.44 1007.37,773.67 852.48,804 C811.46,812.03 765.96,823.83 730.59,833.66 " fill="none" id="models.Round-models.GameMode" style="stroke:#181818;stroke-width:1.0;"/><polygon fill="none" points="1788.37,684.04,1781.4512,682.0076,1776.9141,687.6125,1783.8329,689.6449,1788.37,684.04" style="stroke:#181818;stroke-width:1.0;"/><polygon fill="#181818" points="718.05,837.18,727.7959,838.6007,722.8642,835.8296,725.6352,830.8979,718.05,837.18" style="stroke:#181818;stroke-width:1.0;"/><line style="stroke:#181818;stroke-width:1.0;" x1="722.8642" x2="730.56" y1="835.8296" y2="833.665"/><polygon fill="#000000" points="1204.528,766.2576,1213.8925,767.9179,1213.08,762.0965,1204.528,766.2576" style="stroke:#000000;stroke-width:1.0;"/><text fill="#000000" font-family="sans-serif" font-size="13" lengthAdjust="spacing" textLength="50" x="1218.48" y="770.0669">«owns»</text><text fill="#000000" font-family="sans-serif" font-size="13" lengthAdjust="spacing" textLength="8" x="764.0052" y="816.646">1</text><text fill="#000000" font-family="sans-serif" font-size="13" lengthAdjust="spacing" textLength="84" x="730.0052" y="831.7788">-_gameMode</text></g><!--link models.Round to models.Combination--><g id="link_models.Round_models.Combination"><path codeLine="137" d="M1785.83,684.12 C1708.15,708.35 1611.84,734.82 1523.48,749 C1441.78,762.11 1418.35,739.48 1337.48,757 C1282.94,768.82 1224.74,792.27 1180.03,812.86 " fill="none" id="models.Round-to-models.Combination" style="stroke:#181818;stroke-width:1.0;stroke-dasharray:7.0,7.0;"/><polygon fill="#181818" points="1175.47,814.97,1185.3176,814.8126,1180.006,812.8665,1181.9521,807.555,1175.47,814.97" style="stroke:#181818;stroke-width:1.0;"/><polygon fill="#000000" points="1337.5892,766.6058,1347.0476,767.6003,1345.8258,761.8508,1337.5892,766.6058" style="stroke:#000000;stroke-width:1.0;"/><text fill="#000000" font-family="sans-serif" font-size="13" lengthAdjust="spacing" textLength="46" x="1351.48" y="770.0669">«uses»</text></g><!--link models.Round to models.Clue--><g id="link_models.Round_models.Clue"><path codeLine="138" d="M1761.93,684.04 C1688.39,705.18 1602.07,729.19 1523.48,749 C1507.59,753.01 1497.74,744.21 1487.48,757 C1480.91,765.19 1497.86,1059.04 1505.25,1181.62 " fill="none" id="models.Round-to-models.Clue" style="stroke:#181818;stroke-width:1.0;stroke-dasharray:7.0,7.0;"/><polygon fill="#181818" points="1505.55,1186.62,1509.0022,1177.396,1505.2497,1181.629,1501.0167,1177.8765,1505.55,1186.62" style="stroke:#181818;stroke-width:1.0;"/><polygon fill="#000000" points="1494.1877,944.01,1500.9464,937.3188,1495.7226,934.6241,1494.1877,944.01" style="stroke:#000000;stroke-width:1.0;"/><text fill="#000000" font-family="sans-serif" font-size="13" lengthAdjust="spacing" textLength="46" x="1505.48" y="944.0669">«uses»</text></g><!--link models.Attempt to models.Combination--><g id="link_models.Attempt_models.Combination"><path codeLine="140" d="M1916.7923,811.5013 C1916.7923,811.5013 1798.07,778.9 1738.98,771 C1571.46,748.61 1378.93,781.51 1250.09,811.95 " fill="none" id="models.Attempt-models.Combination" style="stroke:#181818;stroke-width:1.0;"/><polygon fill="#181818" points="1928.28,814.97,1923.6924,809.4064,1916.7923,811.5013,1921.3799,817.0649,1928.28,814.97" style="stroke:#181818;stroke-width:1.0;"/><polygon fill="#181818" points="1237.43,814.98,1247.1123,816.7837,1242.2937,813.8204,1245.2569,809.0018,1237.43,814.98" style="stroke:#181818;stroke-width:1.0;"/><line style="stroke:#181818;stroke-width:1.0;" x1="1242.2937" x2="1250.075" y1="813.8204" y2="811.955"/><polygon fill="#000000" points="1673.98,765.5698,1683.0271,768.5026,1683.0231,762.6248,1673.98,765.5698" style="stroke:#000000;stroke-width:1.0;"/><text fill="#000000" font-family="sans-serif" font-size="13" lengthAdjust="spacing" textLength="50" x="1687.98" y="770.0669">«owns»</text><text fill="#000000" font-family="sans-serif" font-size="13" lengthAdjust="spacing" textLength="8" x="1162.608" y="788.7064">1</text><text fill="#000000" font-family="sans-serif" font-size="13" lengthAdjust="spacing" textLength="159" x="1087.108" y="803.8392">- _combinationSubmited</text></g><!--link models.Attempt to models.Clue--><g id="link_models.Attempt_models.Clue"><path codeLine="141" d="M1977.9193,897.0385 C1977.9193,897.0385 1691.3,1103.08 1585.37,1179.23 " fill="none" id="models.Attempt-models.Clue" style="stroke:#181818;stroke-width:1.0;"/><polygon fill="#181818" points="1987.66,890.03,1980.4535,890.2874,1977.9193,897.0385,1985.1258,896.7812,1987.66,890.03" style="stroke:#181818;stroke-width:1.0;"/><polygon fill="#181818" points="1574.75,1186.86,1584.393,1184.8567,1578.8105,1183.9424,1579.7248,1178.3599,1574.75,1186.86" style="stroke:#181818;stroke-width:1.0;"/><line style="stroke:#181818;stroke-width:1.0;" x1="1578.8105" x2="1585.305" y1="1183.9424" y2="1179.275"/><polygon fill="#000000" points="1860.4202,1026.4849,1869.4799,1023.5916,1866.049,1018.819,1860.4202,1026.4849" style="stroke:#000000;stroke-width:1.0;"/><text fill="#000000" font-family="sans-serif" font-size="13" lengthAdjust="spacing" textLength="50" x="1873.48" y="1028.0669">«owns»</text><text fill="#000000" font-family="sans-serif" font-size="13" lengthAdjust="spacing" textLength="8" x="1551.0377" y="1160.78">1</text><text fill="#000000" font-family="sans-serif" font-size="13" lengthAdjust="spacing" textLength="50" x="1530.0377" y="1175.9128">- _clues</text></g><!--link models.Combination to models.PawnColor--><g id="link_models.Combination_models.PawnColor"><path codeLine="143" d="M950.3626,894.9 C950.3626,894.9 870.98,940.44 847.48,978 C801.24,1051.91 883.18,1135.21 949.35,1186.28 " fill="none" id="models.Combination-models.PawnColor" style="stroke:#181818;stroke-width:1.0;"/><polygon fill="none" points="961.33,890.03,954.223,888.8092,950.3626,894.9,957.4696,896.1208,961.33,890.03" style="stroke:#181818;stroke-width:1.0;"/><polygon fill="#181818" points="959.82,1194.2,955.0598,1185.5779,955.8339,1191.1816,950.2303,1191.9557,959.82,1194.2" style="stroke:#181818;stroke-width:1.0;"/><line style="stroke:#181818;stroke-width:1.0;" x1="955.8339" x2="949.445" y1="1191.1816" y2="1186.355"/><polygon fill="#000000" points="852.4626,1028.5664,855.433,1019.5316,849.5551,1019.5111,852.4626,1028.5664" style="stroke:#000000;stroke-width:1.0;"/><text fill="#000000" font-family="sans-serif" font-size="13" lengthAdjust="spacing" textLength="71" x="861.48" y="1028.0669">«contains»</text><text fill="#000000" font-family="sans-serif" font-size="13" lengthAdjust="spacing" textLength="24" x="903.0377" y="1171.8054">4..6</text><text fill="#000000" font-family="sans-serif" font-size="13" lengthAdjust="spacing" textLength="70" x="882.0377" y="1186.9382"># _PAWNS</text></g><!--link models.Solution to models.PawnColor--><g id="link_models.Solution_models.PawnColor"><path codeLine="145" d="M1170.97,1069.04 C1145.93,1096.57 1113.23,1132.52 1084.72,1163.88 " fill="none" id="models.Solution-to-models.PawnColor" style="stroke:#181818;stroke-width:1.0;stroke-dasharray:7.0,7.0;"/><polygon fill="#181818" points="1081.26,1167.68,1090.27,1163.7026,1084.6198,1163.9771,1084.3453,1158.3269,1081.26,1167.68" style="stroke:#181818;stroke-width:1.0;"/><polygon fill="#000000" points="1140.116,1111.2655,1148.3758,1106.5511,1144.0273,1102.5965,1140.116,1111.2655" style="stroke:#000000;stroke-width:1.0;"/><text fill="#000000" font-family="sans-serif" font-size="13" lengthAdjust="spacing" textLength="46" x="1152.48" y="1112.0669">«uses»</text></g><!--link models.Solution to models.Clue--><g id="link_models.Solution_models.Clue"><path codeLine="146" d="M1274.47,1069.04 C1322.08,1102.7 1387.49,1148.95 1437.06,1184 " fill="none" id="models.Solution-to-models.Clue" style="stroke:#181818;stroke-width:1.0;stroke-dasharray:7.0,7.0;"/><polygon fill="#181818" points="1441.2,1186.93,1436.1761,1178.4589,1437.1227,1184.036,1431.5456,1184.9826,1441.2,1186.93" style="stroke:#181818;stroke-width:1.0;"/><polygon fill="#000000" points="1341.5626,1110.453,1335.8738,1102.8314,1332.4804,1107.6308,1341.5626,1110.453" style="stroke:#000000;stroke-width:1.0;"/><text fill="#000000" font-family="sans-serif" font-size="13" lengthAdjust="spacing" textLength="46" x="1346.48" y="1112.0669">«uses»</text></g><!--link GameController to models.Game--><g id="link_GameController_models.Game"><path codeLine="148" d="M2647.3232,533.4541 C2647.3232,533.4541 2449.84,494.35 2354.48,484 C2084.51,454.7 1400.86,442.55 1132.48,484 C1066.34,494.21 996.69,512.18 932.08,532.11 " fill="none" id="GameController-models.Game" style="stroke:#181818;stroke-width:1.0;"/><polygon fill="#181818" points="2659.05,536,2654.0352,530.8181,2647.3232,533.4541,2652.338,538.636,2659.05,536" style="stroke:#181818;stroke-width:1.0;"/><polygon fill="#181818" points="919.65,535.99,929.4327,537.1292,924.4233,534.5014,927.0511,529.492,919.65,535.99" style="stroke:#181818;stroke-width:1.0;"/><line style="stroke:#181818;stroke-width:1.0;" x1="924.4233" x2="932.065" y1="534.5014" y2="532.115"/><polygon fill="#000000" points="1662.98,457.5625,1672.0228,460.5085,1672.0274,454.6307,1662.98,457.5625" style="stroke:#000000;stroke-width:1.0;"/><text fill="#000000" font-family="sans-serif" font-size="13" lengthAdjust="spacing" textLength="50" x="1676.98" y="462.0669">«owns»</text><text fill="#000000" font-family="sans-serif" font-size="13" lengthAdjust="spacing" textLength="8" x="904.2747" y="509.6839">1</text><text fill="#000000" font-family="sans-serif" font-size="13" lengthAdjust="spacing" textLength="49" x="887.7747" y="524.8167">-_game</text></g><!--reverse link GameWindow to GameController--><g id="link_GameWindow_GameController"><path codeLine="149" d="M1566.58,422.26 C1567.3,438.6 1571.91,454.3 1583.48,466 C1591.01,473.61 2343.85,472.72 2354.48,474 C2463.09,487.06 2579.78,510.82 2684.71,535.9 " fill="none" id="GameWindow-backto-GameController" style="stroke:#181818;stroke-width:1.0;stroke-dasharray:7.0,7.0;"/><polygon fill="#181818" points="1566.48,417.17,1562.6867,426.2591,1566.5943,422.1687,1570.6846,426.0762,1566.48,417.17" style="stroke:#181818;stroke-width:1.0;"/><polygon fill="#000000" points="1583.5056,457.0608,1592.2072,460.8993,1592.8015,455.0516,1583.5056,457.0608" style="stroke:#000000;stroke-width:1.0;"/><text fill="#000000" font-family="sans-serif" font-size="13" lengthAdjust="spacing" textLength="57" x="1597.48" y="462.0669">«create»</text></g><!--link GameWindow to GameController--><g id="link_GameWindow_GameController"><path codeLine="156" d="M1500.9,417.06 C1491.17,434.19 1489.15,451.54 1503.48,466 C1511.8,474.4 2342.75,472.59 2354.48,474 C2461.54,486.83 2576.45,510.08 2680.22,534.76 " fill="none" id="GameWindow-to-GameController" style="stroke:#181818;stroke-width:1.0;stroke-dasharray:7.0,7.0;"/><polygon fill="#181818" points="2685.15,535.94,2677.3181,529.9683,2680.2854,534.7845,2675.4692,537.7518,2685.15,535.94" style="stroke:#181818;stroke-width:1.0;"/><polygon fill="#000000" points="1513.4553,458.063,1504.7468,454.2403,1504.163,460.0891,1513.4553,458.063" style="stroke:#000000;stroke-width:1.0;"/><text fill="#000000" font-family="sans-serif" font-size="13" lengthAdjust="spacing" textLength="46" x="1517.48" y="462.0669">«uses»</text></g><!--reverse link EndWindow to GameController--><g id="link_EndWindow_GameController"><path codeLine="150" d="M2743.1,372.02 C2785.53,411.27 2859.29,479.49 2920.23,535.85 " fill="none" id="EndWindow-backto-GameController" style="stroke:#181818;stroke-width:1.0;stroke-dasharray:7.0,7.0;"/><polygon fill="#181818" points="2739.35,368.55,2743.2355,377.6,2743.0185,371.9473,2748.6712,371.7304,2739.35,368.55" style="stroke:#181818;stroke-width:1.0;"/><polygon fill="#000000" points="2837.8093,454.1714,2842.4541,462.4706,2846.4452,458.1555,2837.8093,454.1714" style="stroke:#000000;stroke-width:1.0;"/><text fill="#000000" font-family="sans-serif" font-size="13" lengthAdjust="spacing" textLength="57" x="2850.48" y="462.0669">«create»</text></g><!--link EndWindow to GameController--><g id="link_EndWindow_GameController"><path codeLine="159" d="M2714.37,368.71 C2721.18,396.16 2734.64,437.47 2758.48,466 C2779.34,490.96 2805.04,513.26 2832.12,532.76 " fill="none" id="EndWindow-to-GameController" style="stroke:#181818;stroke-width:1.0;stroke-dasharray:7.0,7.0;"/><polygon fill="#181818" points="2836.47,535.86,2831.4601,527.3806,2832.3975,532.9592,2826.8188,533.8966,2836.47,535.86" style="stroke:#181818;stroke-width:1.0;"/><polygon fill="#000000" points="2766.3956,461.6284,2763.5088,452.5665,2758.7337,455.9939,2766.3956,461.6284" style="stroke:#000000;stroke-width:1.0;"/><text fill="#000000" font-family="sans-serif" font-size="13" lengthAdjust="spacing" textLength="46" x="2772.48" y="462.0669">«uses»</text></g><!--link GameController to models.GameMode--><g id="link_GameController_models.GameMode"><path codeLine="151" d="M2545.92,725.05 C2481.79,734.79 2416.68,743.23 2354.48,749 C2313.05,752.84 1646.09,747.89 1605.48,757 C1587.82,760.96 1586.08,769.76 1568.48,774 C1413.66,811.28 1009.99,780.53 852.48,804 C808.21,810.6 759.17,823.65 723.01,834.4 " fill="none" id="GameController-to-models.GameMode" style="stroke:#181818;stroke-width:1.0;stroke-dasharray:7.0,7.0;"/><polygon fill="#181818" points="718.22,835.83,727.9871,837.0965,723.0123,834.4037,725.7051,829.4289,718.22,835.83" style="stroke:#181818;stroke-width:1.0;"/><polygon fill="#000000" points="1605.489,765.8658,1614.6938,768.2578,1614.3418,762.3905,1605.489,765.8658" style="stroke:#000000;stroke-width:1.0;"/><text fill="#000000" font-family="sans-serif" font-size="13" lengthAdjust="spacing" textLength="46" x="1619.48" y="770.0669">«uses»</text></g><!--link MenuWindow to GameController--><g id="link_MenuWindow_GameController"><path codeLine="153" d="M2232.93,368.59 C2289.83,389.15 2368.73,417.33 2438.48,441 C2530.27,472.15 2630.57,505.01 2721.71,534.41 " fill="none" id="MenuWindow-to-GameController" style="stroke:#181818;stroke-width:1.0;stroke-dasharray:7.0,7.0;"/><polygon fill="#181818" points="2726.59,535.99,2719.263,529.4086,2721.8339,534.4475,2716.795,537.0183,2726.59,535.99" style="stroke:#181818;stroke-width:1.0;"/><polygon fill="#000000" points="2510.2149,459.1727,2502.5935,453.4837,2500.7052,459.05,2510.2149,459.1727" style="stroke:#000000;stroke-width:1.0;"/><text fill="#000000" font-family="sans-serif" font-size="13" lengthAdjust="spacing" textLength="46" x="2514.48" y="462.0669">«uses»</text></g><!--link MenuWindow to models.GameMode--><g id="link_MenuWindow_models.GameMode"><path codeLine="154" d="M2084.6,368.53 C2027.73,390.84 1944.98,421.3 1870.48,441 C1808.95,457.27 1792.87,460.26 1729.48,466 C1718.98,466.95 217.92,466.52 210.48,474 C167.38,517.33 172.27,701.31 210.48,749 C260.8,811.8 505.77,838.66 615.8,847.69 " fill="none" id="MenuWindow-to-models.GameMode" style="stroke:#181818;stroke-width:1.0;stroke-dasharray:7.0,7.0;"/><polygon fill="#181818" points="620.93,848.11,612.2787,843.4031,615.946,847.7101,611.6389,851.3774,620.93,848.11" style="stroke:#181818;stroke-width:1.0;"/><polygon fill="#000000" points="210.7265,632.1171,220.2371,632.1059,218.4141,626.5179,210.7265,632.1171" style="stroke:#000000;stroke-width:1.0;"/><text fill="#000000" font-family="sans-serif" font-size="13" lengthAdjust="spacing" textLength="46" x="224.48" y="635.0669">«uses»</text></g><!--link GameWindow to models.GameMode--><g id="link_GameWindow_models.GameMode"><path codeLine="157" d="M1317.73,344.78 C909.4,354.87 169.59,385.3 88.48,474 C6,564.19 16.44,650.26 88.48,749 C150.11,833.47 482.99,848.4 615.26,850.98 " fill="none" id="GameWindow-to-models.GameMode" style="stroke:#181818;stroke-width:1.0;stroke-dasharray:7.0,7.0;"/><polygon fill="#181818" points="620.64,851.08,611.7099,846.9263,615.6407,850.9943,611.5728,854.9251,620.64,851.08" style="stroke:#181818;stroke-width:1.0;"/><polygon fill="#000000" points="89.4235,633.4895,98.48,630.5859,95.0436,625.8172,89.4235,633.4895" style="stroke:#000000;stroke-width:1.0;"/><text fill="#000000" font-family="sans-serif" font-size="13" lengthAdjust="spacing" textLength="46" x="102.48" y="635.0669">«uses»</text></g><!--link MasterMindApp to GameController--><g id="link_MasterMindApp_GameController"><path codeLine="161" d="M2652.25,44.26 C2741.73,57.25 2899.58,94.47 2977.48,199 C3048.49,294.28 3048.55,436.16 3038.23,530.69 " fill="none" id="MasterMindApp-to-GameController" style="stroke:#181818;stroke-width:1.0;stroke-dasharray:7.0,7.0;"/><polygon fill="#181818" points="3037.66,535.71,3042.6375,527.2115,3038.2169,530.7411,3034.6872,526.3205,3037.66,535.71" style="stroke:#181818;stroke-width:1.0;"/><polygon fill="#000000" points="2978.5879,186.4831,2975.2678,177.5709,2970.6634,181.2245,2978.5879,186.4831" style="stroke:#000000;stroke-width:1.0;"/><text fill="#000000" font-family="sans-serif" font-size="13" lengthAdjust="spacing" textLength="57" x="2984.48" y="187.0669">«create»</text></g><!--link MasterMindApp to MenuWindow--><g id="link_MasterMindApp_MenuWindow"><path codeLine="162" d="M2545.45,66.04 C2464.36,122.45 2284.16,247.8 2199.75,306.51 " fill="none" id="MasterMindApp-to-MenuWindow" style="stroke:#181818;stroke-width:1.0;stroke-dasharray:7.0,7.0;"/><polygon fill="#181818" points="2195.55,309.43,2205.2209,307.5661,2199.6522,306.5713,2200.647,301.0026,2195.55,309.43" style="stroke:#181818;stroke-width:1.0;"/><polygon fill="#000000" points="2455.3754,138.4216,2464.4789,135.6691,2461.1225,130.8439,2455.3754,138.4216" style="stroke:#000000;stroke-width:1.0;"/><text fill="#000000" font-family="sans-serif" font-size="13" lengthAdjust="spacing" textLength="57" x="2468.48" y="140.0669">«create»</text></g><!--SRC=[fLVRZjis47tNLn3kY_TY8Uab3qLWGEiwgb7VO2KmWgOmQ8cnXKYa8KhPR8lzzmmfKY8bUkqYUTY8v9apPsOu9Cs_fFI42vmZNZvb1FuMQLnMUURnPYNECET12IlxgYIpcD4e_PUWLrt8EqRBIB8yi2pnZcb24A5LZd9I7bd2wvcKbgJuZ6E2iARaNfSA_USX-BV7yPT3mIgQJ5Z6YhTl1TruZ5O5fWVYXZJyW9kdXsCP5eHGDnRl8LuSbnhwa5LELas4dxndppl18ZuGz3KbZzmJIclD2r2tJMd27c6g3k3Ec1mUS4ucaAE2PHafqEyej2PkOCQYU6wO1R2UHcb-oaXEQCbHpXAISLyihlQS55z9qJWUxI2x93-LCvgGRy0yWxGS940ifdnPvGHA3IiFZ6K4KwMtTNMDtXQjp1aDQhzhA08hSf8CbH10gwMR1hiH6NwNqfGV0LZFZr11E2dbqh252ayjKZ5PIPhInCh-NJjpJIYc-RDPvhY1cSMs2OoyLr092ej06S7-fWSrJ_So9Dwh1TtBFNP-OKOdBD-d59SfemwKIaQNu0wQ6HUb43hiYRf78YKBs45M5UzHNwQOwofivyw84u2-BbrENktpj3GCXoVyI1idQptu-nzjGSatQqkCu6H9P6XoR1MixejEhOmAnLLHG0D9kbxE96S_2NgpArICixZAS4cYc1Marj6ZQZMxSd4vXPqAYK-TZbErpw1v-tcCBIPZHLlY9D67XUmAFL1Ez51dcR8o_VnqRKzhlBklwpMxaMMpDOMITaQbKhwLSTX7r8_a5BcI2j_QSx-uQjVrc-j_vBxDanrlEwcl2pLZSaNIKKaIc_GUE2eYWf_0_z0fbXEfa1MbMEFTD1iiXkkhpfixqtW8TwqxupUsLjjznB9AKaD_4D5bRZqQDhoWI_ZIM6Lw89GKee2QGkz-I2kyCk2mAuzNLwvEhxfgsjUBsIt8UdOOCVpuTTY_-vGI-R8Isf1-5Xb-jzFvVBUU1vFf7_eTCekiyNQpMeOcbUu65zra7aJHRA96qo3wg3wN7nRJZLneU9h3sqMqQVo7c-bqgRuVvX-cwlCZ25zjrM2r2PQXNbdFbd-fp_ai_FFzBjm4MiOY2AVBzu6-kTLp37CeoGBkjU1qyhI27ATYEm3AU3wXsz4O3Nxn_T_G9mhdZdpvyO5-OUcROWmXiKVA8QIUyMlVlwsDcTeKhNredxDdQ7n_R1geGqg0uVP-0MmtXO7tBFct8ocpriXLOpGIcvvqoTC4YMHuvVklVwvfr5vk8msQpNsEXPaoz64yE1EuY-2QoCyQY7PnvaWBhslvYOxGhdS4asHmthCjrKKdJkA1Gucoz1pKJ9Z_wljl85i_eTqws2wZXg9jj9f7l5DXSvjSJLNzf4r2ryxEcTF4aJVx_TjiZhQkLatjK3ksVWMUZ9yuAfo2m0b-1jqyrY-1aqjDvRK_kMfqsFsfO82xs9UPZP0kCdUnBpEtuLyazgnZKE3F6JGvT5aOaTlexm00]--></g></svg>