<?xml version="1.0" encoding="UTF-8" standalone="no"?><svg xmlns="http://www.w3.org/2000/svg" xmlns:xlink="http://www.w3.org/1999/xlink" contentStyleType="text/css" height="1677px" preserveAspectRatio="none" style="width:900px;height:1677px;background:#FFFFFF;" version="1.1" viewBox="0 0 900 1677" width="900px" zoomAndPan="magnify"><defs/><g><!--cluster views--><g id="cluster_views"><path d="M226.5,6 L272.5,6 A3.75,3.75 0 0 1 275,8.5 L282,28.2969 L651.5,28.2969 A2.5,2.5 0 0 1 654,30.7969 L654,96.5 A2.5,2.5 0 0 1 651.5,99 L226.5,99 A2.5,2.5 0 0 1 224,96.5 L224,8.5 A2.5,2.5 0 0 1 226.5,6 " fill="none" style="stroke:#000000;stroke-width:1.5;"/><line style="stroke:#000000;stroke-width:1.5;" x1="224" x2="282" y1="28.2969" y2="28.2969"/><text fill="#000000" font-family="sans-serif" font-size="14" font-weight="bold" lengthAdjust="spacing" textLength="45" x="228" y="20.9951">views</text></g><!--cluster controllers--><g id="cluster_controllers"><path d="M199.5,148 L287.5,148 A3.75,3.75 0 0 1 290,150.5 L297,170.2969 L678.5,170.2969 A2.5,2.5 0 0 1 681,172.7969 L681,238.5 A2.5,2.5 0 0 1 678.5,241 L199.5,241 A2.5,2.5 0 0 1 197,238.5 L197,150.5 A2.5,2.5 0 0 1 199.5,148 " fill="none" style="stroke:#000000;stroke-width:1.5;"/><line style="stroke:#000000;stroke-width:1.5;" x1="197" x2="297" y1="170.2969" y2="170.2969"/><text fill="#000000" font-family="sans-serif" font-size="14" font-weight="bold" lengthAdjust="spacing" textLength="87" x="201" y="162.9951">controllers</text></g><!--cluster models--><g id="cluster_models"><path d="M8.5,290 L67.5,290 A3.75,3.75 0 0 1 70,292.5 L77,312.2969 L883.5,312.2969 A2.5,2.5 0 0 1 886,314.7969 L886,1667.5 A2.5,2.5 0 0 1 883.5,1670 L8.5,1670 A2.5,2.5 0 0 1 6,1667.5 L6,292.5 A2.5,2.5 0 0 1 8.5,290 " fill="none" style="stroke:#000000;stroke-width:1.5;"/><line style="stroke:#000000;stroke-width:1.5;" x1="6" x2="77" y1="312.2969" y2="312.2969"/><text fill="#000000" font-family="sans-serif" font-size="14" font-weight="bold" lengthAdjust="spacing" textLength="58" x="10" y="304.9951">models</text></g><!--class MenuWindow--><g id="elem_MenuWindow"><rect codeLine="9" fill="#F1F1F1" height="42.2969" id="MenuWindow" rx="2.5" ry="2.5" style="stroke:#181818;stroke-width:0.5;" width="113" x="240.5" y="41"/><text fill="#000000" font-family="sans-serif" font-size="14" font-weight="bold" lengthAdjust="spacing" textLength="107" x="243.5" y="58.9951">MenuWindow</text><line style="stroke:#181818;stroke-width:0.5;" x1="241.5" x2="352.5" y1="67.2969" y2="67.2969"/><line style="stroke:#181818;stroke-width:0.5;" x1="241.5" x2="352.5" y1="75.2969" y2="75.2969"/></g><!--class GameWindow--><g id="elem_GameWindow"><rect codeLine="10" fill="#F1F1F1" height="42.2969" id="GameWindow" rx="2.5" ry="2.5" style="stroke:#181818;stroke-width:0.5;" width="114" x="389" y="41"/><text fill="#000000" font-family="sans-serif" font-size="14" font-weight="bold" lengthAdjust="spacing" textLength="108" x="392" y="58.9951">GameWindow</text><line style="stroke:#181818;stroke-width:0.5;" x1="390" x2="502" y1="67.2969" y2="67.2969"/><line style="stroke:#181818;stroke-width:0.5;" x1="390" x2="502" y1="75.2969" y2="75.2969"/></g><!--class EndWindow--><g id="elem_EndWindow"><rect codeLine="11" fill="#F1F1F1" height="42.2969" id="EndWindow" rx="2.5" ry="2.5" style="stroke:#181818;stroke-width:0.5;" width="99" x="538.5" y="41"/><text fill="#000000" font-family="sans-serif" font-size="14" font-weight="bold" lengthAdjust="spacing" textLength="93" x="541.5" y="58.9951">EndWindow</text><line style="stroke:#181818;stroke-width:0.5;" x1="539.5" x2="636.5" y1="67.2969" y2="67.2969"/><line style="stroke:#181818;stroke-width:0.5;" x1="539.5" x2="636.5" y1="75.2969" y2="75.2969"/></g><!--class MenuController--><g id="elem_MenuController"><rect codeLine="15" fill="#F1F1F1" height="42.2969" id="MenuController" rx="2.5" ry="2.5" style="stroke:#181818;stroke-width:0.5;" width="131" x="213.5" y="183"/><text fill="#000000" font-family="sans-serif" font-size="14" font-weight="bold" lengthAdjust="spacing" textLength="125" x="216.5" y="200.9951">MenuController</text><line style="stroke:#181818;stroke-width:0.5;" x1="214.5" x2="343.5" y1="209.2969" y2="209.2969"/><line style="stroke:#181818;stroke-width:0.5;" x1="214.5" x2="343.5" y1="217.2969" y2="217.2969"/></g><!--class GameController--><g id="elem_GameController"><rect codeLine="16" fill="#F1F1F1" height="42.2969" id="GameController" rx="2.5" ry="2.5" style="stroke:#181818;stroke-width:0.5;" width="132" x="380" y="183"/><text fill="#000000" font-family="sans-serif" font-size="14" font-weight="bold" lengthAdjust="spacing" textLength="126" x="383" y="200.9951">GameController</text><line style="stroke:#181818;stroke-width:0.5;" x1="381" x2="511" y1="209.2969" y2="209.2969"/><line style="stroke:#181818;stroke-width:0.5;" x1="381" x2="511" y1="217.2969" y2="217.2969"/></g><!--class EndController--><g id="elem_EndController"><rect codeLine="17" fill="#F1F1F1" height="42.2969" id="EndController" rx="2.5" ry="2.5" style="stroke:#181818;stroke-width:0.5;" width="117" x="547.5" y="183"/><text fill="#000000" font-family="sans-serif" font-size="14" font-weight="bold" lengthAdjust="spacing" textLength="111" x="550.5" y="200.9951">EndController</text><line style="stroke:#181818;stroke-width:0.5;" x1="548.5" x2="663.5" y1="209.2969" y2="209.2969"/><line style="stroke:#181818;stroke-width:0.5;" x1="548.5" x2="663.5" y1="217.2969" y2="217.2969"/></g><!--class Game--><g id="elem_Game"><rect codeLine="21" fill="#F1F1F1" height="188.9688" id="Game" rx="2.5" ry="2.5" style="stroke:#181818;stroke-width:0.5;" width="799" x="46.5" y="325"/><text fill="#000000" font-family="sans-serif" font-size="14" font-weight="bold" lengthAdjust="spacing" textLength="45" x="423.5" y="342.9951">Game</text><line style="stroke:#181818;stroke-width:0.5;" x1="47.5" x2="844.5" y1="351.2969" y2="351.2969"/><text fill="#000000" font-family="sans-serif" font-size="14" font-weight="bold" lengthAdjust="spacing" textLength="210" x="52.5" y="368.292">-_NBROUNDSMAX: Integer</text><line style="stroke:#181818;stroke-width:0.5;" x1="47.5" x2="844.5" y1="375.5938" y2="375.5938"/><text fill="#000000" font-family="sans-serif" font-size="14" font-weight="bold" lengthAdjust="spacing" textLength="218" x="52.5" y="392.5889">+Game(nbRounds: Integer)</text><text fill="#000000" font-family="sans-serif" font-size="14" font-weight="bold" lengthAdjust="spacing" textLength="740" x="52.5" y="408.8857">+nextRound(nbAttempts: Integer, nbColorsInCombination: Integer, gameMode: GameMode)</text><text fill="#000000" font-family="sans-serif" font-size="14" font-weight="bold" lengthAdjust="spacing" textLength="190" x="52.5" y="425.1826">-isGameOver(): Boolean</text><text fill="#000000" font-family="sans-serif" font-size="14" font-weight="bold" lengthAdjust="spacing" textLength="787" x="52.5" y="441.4795">-createNextRound(nbAttempts: Integer, nbColorsInCombination: Integer, gameMode: GameMode)</text><text fill="#000000" font-family="sans-serif" font-size="14" font-weight="bold" lengthAdjust="spacing" textLength="225" x="52.5" y="457.7764">+getCurrentRound(): Round</text><text fill="#000000" font-family="sans-serif" font-size="14" font-weight="bold" lengthAdjust="spacing" textLength="255" x="52.5" y="474.0732">+getCurrentRoundNb(): Integer</text><text fill="#000000" font-family="sans-serif" font-size="14" font-weight="bold" lengthAdjust="spacing" textLength="93" x="52.5" y="490.3701">-endGame()</text><text fill="#000000" font-family="sans-serif" font-size="14" font-weight="bold" lengthAdjust="spacing" textLength="255" x="52.5" y="506.667">+calculateScoreGame(): Integer</text></g><!--class Round--><g id="elem_Round"><rect codeLine="32" fill="#F1F1F1" height="188.9688" id="Round" rx="2.5" ry="2.5" style="stroke:#181818;stroke-width:0.5;" width="716" x="23" y="591"/><text fill="#000000" font-family="sans-serif" font-size="14" font-weight="bold" lengthAdjust="spacing" textLength="51" x="355.5" y="608.9951">Round</text><line style="stroke:#181818;stroke-width:0.5;" x1="24" x2="738" y1="617.2969" y2="617.2969"/><text fill="#000000" font-family="sans-serif" font-size="14" font-weight="bold" lengthAdjust="spacing" textLength="191" x="29" y="634.292">-_NBATTEMPTS: Integer</text><line style="stroke:#181818;stroke-width:0.5;" x1="24" x2="738" y1="641.5938" y2="641.5938"/><text fill="#000000" font-family="sans-serif" font-size="14" font-weight="bold" lengthAdjust="spacing" textLength="704" x="29" y="658.5889">+Round(nbAttempts: Integer, nbColorsInCombination: Integer, gameMode: GameMode)</text><text fill="#000000" font-family="sans-serif" font-size="14" font-weight="bold" lengthAdjust="spacing" textLength="121" x="29" y="674.8857">-nextAttempt()</text><text fill="#000000" font-family="sans-serif" font-size="14" font-weight="bold" lengthAdjust="spacing" textLength="196" x="29" y="691.1826">-isRoundOver(): Boolean</text><text fill="#000000" font-family="sans-serif" font-size="14" font-weight="bold" lengthAdjust="spacing" textLength="391" x="29" y="707.4795">+submitCombination(combination: Combination)</text><text fill="#000000" font-family="sans-serif" font-size="14" font-weight="bold" lengthAdjust="spacing" textLength="257" x="29" y="723.7764">+getCurrentAttempt(): Attempt</text><text fill="#000000" font-family="sans-serif" font-size="14" font-weight="bold" lengthAdjust="spacing" textLength="271" x="29" y="740.0732">+getCurrentAttemptNb(): Integer</text><text fill="#000000" font-family="sans-serif" font-size="14" font-weight="bold" lengthAdjust="spacing" textLength="99" x="29" y="756.3701">-endRound()</text><text fill="#000000" font-family="sans-serif" font-size="14" font-weight="bold" lengthAdjust="spacing" textLength="261" x="29" y="772.667">+calculateScoreRound(): Integer</text></g><!--class Combination--><g id="elem_Combination"><rect codeLine="43" fill="#F1F1F1" height="140.0781" id="Combination" rx="2.5" ry="2.5" style="stroke:#181818;stroke-width:0.5;" width="393" x="135.5" y="1041"/><text fill="#000000" font-family="sans-serif" font-size="14" font-weight="bold" lengthAdjust="spacing" textLength="101" x="281.5" y="1058.9951">Combination</text><line style="stroke:#181818;stroke-width:0.5;" x1="136.5" x2="527.5" y1="1067.2969" y2="1067.2969"/><text fill="#000000" font-family="sans-serif" font-size="14" font-weight="bold" lengthAdjust="spacing" textLength="301" x="141.5" y="1084.292">-_NBCOLORSINCOMBINATION: Integer</text><line style="stroke:#181818;stroke-width:0.5;" x1="136.5" x2="527.5" y1="1091.5938" y2="1091.5938"/><text fill="#000000" font-family="sans-serif" font-size="14" font-weight="bold" lengthAdjust="spacing" textLength="125" x="141.5" y="1108.5889">#Combination()</text><text fill="#000000" font-family="sans-serif" font-size="14" font-weight="bold" lengthAdjust="spacing" textLength="381" x="141.5" y="1124.8857">+Combination(nbColorsInCombination: Integer)</text><text fill="#000000" font-family="sans-serif" font-size="14" font-weight="bold" lengthAdjust="spacing" textLength="309" x="141.5" y="1141.1826">+getNbColorsInCombination(): Integer</text><text fill="#000000" font-family="sans-serif" font-size="14" font-weight="bold" lengthAdjust="spacing" textLength="256" x="141.5" y="1157.4795">+setPawns(pawns: PawnColor[])</text><text fill="#000000" font-family="sans-serif" font-size="14" font-weight="bold" lengthAdjust="spacing" textLength="208" x="141.5" y="1173.7764">+getPawns(): PawnColor[]</text></g><!--class Solution--><g id="elem_Solution"><rect codeLine="51" fill="#F1F1F1" height="140.0781" id="Solution" rx="2.5" ry="2.5" style="stroke:#181818;stroke-width:0.5;" width="512" x="178" y="1258"/><text fill="#000000" font-family="sans-serif" font-size="14" font-weight="bold" lengthAdjust="spacing" textLength="67" x="400.5" y="1275.9951">Solution</text><line style="stroke:#181818;stroke-width:0.5;" x1="179" x2="689" y1="1284.2969" y2="1284.2969"/><line style="stroke:#181818;stroke-width:0.5;" x1="179" x2="689" y1="1292.2969" y2="1292.2969"/><text fill="#000000" font-family="sans-serif" font-size="14" font-weight="bold" lengthAdjust="spacing" textLength="347" x="184" y="1309.292">+Solution(nbColorsInCombination: Integer)</text><text fill="#000000" font-family="sans-serif" font-size="14" font-weight="bold" lengthAdjust="spacing" textLength="164" x="184" y="1325.5889">+generateSolution()</text><text fill="#000000" font-family="sans-serif" font-size="14" font-weight="bold" lengthAdjust="spacing" textLength="500" x="184" y="1341.8857">+compareWithCombination(combination: Combination): Clue[]</text><text fill="#000000" font-family="sans-serif" font-size="14" font-weight="bold" lengthAdjust="spacing" textLength="374" x="184" y="1358.1826">+isInSolution(pawnColor: PawnColor): Boolean</text><text fill="#000000" font-family="sans-serif" font-size="14" font-weight="bold" lengthAdjust="spacing" textLength="334" x="184" y="1374.4795">+isSolutionFound(clues : Clue[]): Boolean</text><text fill="#000000" font-family="sans-serif" font-size="14" font-weight="bold" lengthAdjust="spacing" textLength="256" x="184" y="1390.7764">+sortClues(clues: Clue[]): Clue[]</text></g><!--class Attempt--><g id="elem_Attempt"><rect codeLine="59" fill="#F1F1F1" height="107.4844" id="Attempt" rx="2.5" ry="2.5" style="stroke:#181818;stroke-width:0.5;" width="512" x="153" y="857"/><text fill="#000000" font-family="sans-serif" font-size="14" font-weight="bold" lengthAdjust="spacing" textLength="67" x="375.5" y="874.9951">Attempt</text><line style="stroke:#181818;stroke-width:0.5;" x1="154" x2="664" y1="883.2969" y2="883.2969"/><line style="stroke:#181818;stroke-width:0.5;" x1="154" x2="664" y1="891.2969" y2="891.2969"/><text fill="#000000" font-family="sans-serif" font-size="14" font-weight="bold" lengthAdjust="spacing" textLength="500" x="159" y="908.292">+Attempt(combinationSubmitted: Combination, clues : Clue[])</text><text fill="#000000" font-family="sans-serif" font-size="14" font-weight="bold" lengthAdjust="spacing" textLength="348" x="159" y="924.5889">+getCombinationSubmitted(): Combination</text><text fill="#000000" font-family="sans-serif" font-size="14" font-weight="bold" lengthAdjust="spacing" textLength="152" x="159" y="940.8857">+getClues(): Clue[]</text><text fill="#000000" font-family="sans-serif" font-size="14" font-weight="bold" lengthAdjust="spacing" textLength="277" x="159" y="957.1826">+calculateScoreAttempt(): Integer</text></g><!--class PawnColor--><g id="elem_PawnColor"><rect codeLine="66" fill="#F1F1F1" height="178.6406" id="PawnColor" rx="2.5" ry="2.5" style="stroke:#181818;stroke-width:0.5;" width="109" x="112.5" y="1475"/><text fill="#000000" font-family="sans-serif" font-size="12" font-style="italic" lengthAdjust="spacing" textLength="49" x="142.5" y="1491.1387">«enum»</text><text fill="#000000" font-family="sans-serif" font-size="14" font-weight="bold" lengthAdjust="spacing" textLength="84" x="125" y="1506.9639">PawnColor</text><line style="stroke:#181818;stroke-width:0.5;" x1="113.5" x2="220.5" y1="1515.2656" y2="1515.2656"/><text fill="#000000" font-family="sans-serif" font-size="14" font-weight="bold" lengthAdjust="spacing" textLength="33" x="118.5" y="1532.2607">RED</text><text fill="#000000" font-family="sans-serif" font-size="14" font-weight="bold" lengthAdjust="spacing" textLength="54" x="118.5" y="1548.5576">GREEN</text><text fill="#000000" font-family="sans-serif" font-size="14" font-weight="bold" lengthAdjust="spacing" textLength="41" x="118.5" y="1564.8545">BLUE</text><text fill="#000000" font-family="sans-serif" font-size="14" font-weight="bold" lengthAdjust="spacing" textLength="65" x="118.5" y="1581.1514">YELLOW</text><text fill="#000000" font-family="sans-serif" font-size="14" font-weight="bold" lengthAdjust="spacing" textLength="67" x="118.5" y="1597.4482">ORANGE</text><text fill="#000000" font-family="sans-serif" font-size="14" font-weight="bold" lengthAdjust="spacing" textLength="38" x="118.5" y="1613.7451">PINK</text><text fill="#000000" font-family="sans-serif" font-size="14" font-weight="bold" lengthAdjust="spacing" textLength="97" x="118.5" y="1630.042">LIGHT_GRAY</text><text fill="#000000" font-family="sans-serif" font-size="14" font-weight="bold" lengthAdjust="spacing" textLength="79" x="118.5" y="1646.3389">MAGENTA</text></g><!--class GameMode--><g id="elem_GameMode"><rect codeLine="76" fill="#F1F1F1" height="97.1563" id="GameMode" rx="2.5" ry="2.5" style="stroke:#181818;stroke-width:0.5;" width="95" x="774.5" y="862"/><text fill="#000000" font-family="sans-serif" font-size="12" font-style="italic" lengthAdjust="spacing" textLength="49" x="797.5" y="878.1387">«enum»</text><text fill="#000000" font-family="sans-serif" font-size="14" font-weight="bold" lengthAdjust="spacing" textLength="89" x="777.5" y="893.9639">GameMode</text><line style="stroke:#181818;stroke-width:0.5;" x1="775.5" x2="868.5" y1="902.2656" y2="902.2656"/><text fill="#000000" font-family="sans-serif" font-size="14" font-weight="bold" lengthAdjust="spacing" textLength="65" x="780.5" y="919.2607">CLASSIC</text><text fill="#000000" font-family="sans-serif" font-size="14" font-weight="bold" lengthAdjust="spacing" textLength="41" x="780.5" y="935.5576">EASY</text><text fill="#000000" font-family="sans-serif" font-size="14" font-weight="bold" lengthAdjust="spacing" textLength="73" x="780.5" y="951.8545">NUMERIC</text></g><!--class Clue--><g id="elem_Clue"><rect codeLine="81" fill="#F1F1F1" height="97.1563" id="Clue" rx="2.5" ry="2.5" style="stroke:#181818;stroke-width:0.5;" width="124" x="682" y="1516"/><text fill="#000000" font-family="sans-serif" font-size="12" font-style="italic" lengthAdjust="spacing" textLength="49" x="719.5" y="1532.1387">«enum»</text><text fill="#000000" font-family="sans-serif" font-size="14" font-weight="bold" lengthAdjust="spacing" textLength="35" x="726.5" y="1547.9639">Clue</text><line style="stroke:#181818;stroke-width:0.5;" x1="683" x2="805" y1="1556.2656" y2="1556.2656"/><text fill="#000000" font-family="sans-serif" font-size="14" font-weight="bold" lengthAdjust="spacing" textLength="112" x="688" y="1573.2607">WELL_PLACED</text><text fill="#000000" font-family="sans-serif" font-size="14" font-weight="bold" lengthAdjust="spacing" textLength="91" x="688" y="1589.5576">MISPLACED</text><text fill="#000000" font-family="sans-serif" font-size="14" font-weight="bold" lengthAdjust="spacing" textLength="61" x="688" y="1605.8545">WRONG</text></g><!--reverse link Combination to Solution--><g id="link_Combination_Solution"><path d="M367.99,1199.6 C372.25,1209.24 376.64,1218.86 381,1228 C385.66,1237.76 390.8,1247.95 395.97,1257.91 " fill="none" id="Combination-backto-Solution" style="stroke:#181818;stroke-width:1.0;"/><polygon fill="none" points="361.53,1202.3,359.99,1181.16,374.37,1196.72,361.53,1202.3" style="stroke:#181818;stroke-width:1.0;"/></g><!--link Solution to Combination--><g id="link_Solution_Combination"><path codeLine="125" d="M405.25,1257.91 C398.5,1242.38 391.18,1226.04 384,1211 C380.08,1202.8 375.86,1194.28 371.57,1185.84 " fill="none" id="Solution-to-Combination" style="stroke:#181818;stroke-width:1.0;stroke-dasharray:7.0,7.0;"/><polygon fill="#181818" points="369.19,1181.16,369.7126,1190.995,371.4603,1185.6149,376.8404,1187.3626,369.19,1181.16" style="stroke:#181818;stroke-width:1.0;"/><polygon fill="#000000" points="393.8831,1215.0366,395.05,1224.4753,400.3751,1221.9868,393.8831,1215.0366" style="stroke:#000000;stroke-width:1.0;"/><text fill="#000000" font-family="sans-serif" font-size="13" lengthAdjust="spacing" textLength="46" x="405" y="1224.0669">«uses»</text></g><!--link MenuWindow to MenuController--><g id="link_MenuWindow_MenuController"><path codeLine="93" d="M294.42,83.06 C291.21,108.01 285.73,150.62 282.24,177.77 " fill="none" id="MenuWindow-to-MenuController" style="stroke:#181818;stroke-width:1.0;stroke-dasharray:7.0,7.0;"/><polygon fill="#181818" points="281.57,182.98,286.6704,174.5547,282.199,178.0197,278.7339,173.5483,281.57,182.98" style="stroke:#181818;stroke-width:1.0;"/><polygon fill="#000000" points="295.3622,128.5256,299.4309,119.9292,293.601,119.1795,295.3622,128.5256" style="stroke:#000000;stroke-width:1.0;"/><text fill="#000000" font-family="sans-serif" font-size="13" lengthAdjust="spacing" textLength="62" x="305" y="128.0669">«selects»</text></g><!--link GameWindow to GameController--><g id="link_GameWindow_GameController"><path codeLine="96" d="M446,83.06 C446,108.01 446,150.62 446,177.77 " fill="none" id="GameWindow-to-GameController" style="stroke:#181818;stroke-width:1.0;stroke-dasharray:7.0,7.0;"/><polygon fill="#181818" points="446,182.98,450,173.98,446,177.98,442,173.98,446,182.98" style="stroke:#181818;stroke-width:1.0;"/><polygon fill="#000000" points="451,128.5664,453.9389,119.5213,448.0611,119.5213,451,128.5664" style="stroke:#000000;stroke-width:1.0;"/><text fill="#000000" font-family="sans-serif" font-size="13" lengthAdjust="spacing" textLength="62" x="460" y="128.0669">«selects»</text></g><!--link EndWindow to EndController--><g id="link_EndWindow_EndController"><path codeLine="99" d="M590.58,83.06 C593.79,108.01 599.27,150.62 602.76,177.77 " fill="none" id="EndWindow-to-EndController" style="stroke:#181818;stroke-width:1.0;stroke-dasharray:7.0,7.0;"/><polygon fill="#181818" points="603.43,182.98,606.2661,173.5483,602.801,178.0197,598.3296,174.5547,603.43,182.98" style="stroke:#181818;stroke-width:1.0;"/><polygon fill="#000000" points="601.6378,128.5256,603.399,119.1795,597.5691,119.9292,601.6378,128.5256" style="stroke:#000000;stroke-width:1.0;"/><text fill="#000000" font-family="sans-serif" font-size="13" lengthAdjust="spacing" textLength="62" x="610" y="128.0669">«selects»</text></g><!--link GameController to Game--><g id="link_GameController_Game"><path codeLine="104" d="M446,237.09 C446,237.09 446,285.04 446,311.74 " fill="none" id="GameController-Game" style="stroke:#181818;stroke-width:1.0;"/><polygon fill="none" points="446,225.09,442,231.09,446,237.09,450,231.09,446,225.09" style="stroke:#181818;stroke-width:1.0;"/><polygon fill="#181818" points="446,324.82,450,315.82,446,319.82,442,315.82,446,324.82" style="stroke:#181818;stroke-width:1.0;"/><line style="stroke:#181818;stroke-width:1.0;" x1="446" x2="446" y1="319.82" y2="311.82"/><polygon fill="#000000" points="451,270.5664,453.9389,261.5213,448.0611,261.5213,451,270.5664" style="stroke:#000000;stroke-width:1.0;"/><text fill="#000000" font-family="sans-serif" font-size="13" lengthAdjust="spacing" textLength="67" x="460" y="270.0669">«handles»</text><text fill="#000000" font-family="sans-serif" font-size="13" lengthAdjust="spacing" textLength="8" x="413.5539" y="298.8432">1</text><text fill="#000000" font-family="sans-serif" font-size="13" lengthAdjust="spacing" textLength="53" x="391.0539" y="313.976">- _game</text></g><!--link Game to Round--><g id="link_Game_Round"><path codeLine="109" d="M420.0392,525.974 C420.0392,525.974 411.32,561.34 407.17,578.21 " fill="none" id="Game-Round" style="stroke:#181818;stroke-width:1.0;"/><polygon fill="#181818" points="422.9,514.32,417.5849,519.1934,420.0392,525.974,425.3543,521.1006,422.9,514.32" style="stroke:#181818;stroke-width:1.0;"/><polygon fill="#181818" points="404.03,590.98,410.0706,583.2011,405.2284,586.1258,402.3038,581.2836,404.03,590.98" style="stroke:#181818;stroke-width:1.0;"/><line style="stroke:#181818;stroke-width:1.0;" x1="405.2284" x2="407.135" y1="586.1258" y2="578.36"/><polygon fill="#000000" points="418.8039,557.4212,423.8212,549.3418,418.114,547.9357,418.8039,557.4212" style="stroke:#000000;stroke-width:1.0;"/><text fill="#000000" font-family="sans-serif" font-size="13" lengthAdjust="spacing" textLength="50" x="429" y="557.0669">«owns»</text><text fill="#000000" font-family="sans-serif" font-size="13" lengthAdjust="spacing" textLength="24" x="361.4964" y="564.6731">3..5</text><text fill="#000000" font-family="sans-serif" font-size="13" lengthAdjust="spacing" textLength="60" x="343.4964" y="579.8059">- _rounds</text></g><!--link Game to GameMode--><g id="link_Game_GameMode"><path codeLine="110" d="M672.65,514.14 C704.61,535.45 734.27,560.91 757,591 C816.26,669.45 824.96,788.63 824.48,856.77 " fill="none" id="Game-to-GameMode" style="stroke:#181818;stroke-width:1.0;stroke-dasharray:7.0,7.0;"/><polygon fill="#181818" points="824.42,861.99,828.5226,853.0363,824.4771,856.9903,820.5231,852.9449,824.42,861.99" style="stroke:#181818;stroke-width:1.0;"/><polygon fill="#000000" points="827.0257,690.1377,826.0481,680.6775,820.6743,683.0588,827.0257,690.1377" style="stroke:#000000;stroke-width:1.0;"/><text fill="#000000" font-family="sans-serif" font-size="13" lengthAdjust="spacing" textLength="46" x="834" y="690.0669">«uses»</text></g><!--link Round to Solution--><g id="link_Round_Solution"><path codeLine="113" d="M610.8603,786.9649 C610.8603,786.9649 663.73,830.43 683,857 C706.55,889.48 750.04,1171.08 754,1211 C754.75,1218.52 758.48,1221.92 754,1228 C744.99,1240.22 726.35,1251.57 702.37,1261.9 " fill="none" id="Round-Solution" style="stroke:#181818;stroke-width:1.0;"/><polygon fill="#181818" points="601.06,780.04,603.6519,786.7692,610.8603,786.9649,608.2684,780.2357,601.06,780.04" style="stroke:#181818;stroke-width:1.0;"/><polygon fill="#181818" points="690.2,1266.89,700.0446,1267.179,694.8267,1264.9943,697.0114,1259.7763,690.2,1266.89" style="stroke:#181818;stroke-width:1.0;"/><line style="stroke:#181818;stroke-width:1.0;" x1="694.8267" x2="702.225" y1="1264.9943" y2="1261.96"/><polygon fill="#000000" points="726.946,1007.4761,728.1205,998.0383,722.3488,999.1504,726.946,1007.4761" style="stroke:#000000;stroke-width:1.0;"/><text fill="#000000" font-family="sans-serif" font-size="13" lengthAdjust="spacing" textLength="50" x="735" y="1007.0669">«owns»</text><text fill="#000000" font-family="sans-serif" font-size="13" lengthAdjust="spacing" textLength="8" x="735.6077" y="1246.9377">1</text><text fill="#000000" font-family="sans-serif" font-size="13" lengthAdjust="spacing" textLength="83" x="698.1077" y="1262.0705">- _SOLUTION</text></g><!--link Round to Attempt--><g id="link_Round_Attempt"><path codeLine="114" d="M394.253,792.0055 C394.253,792.0055 398.75,827.87 400.75,843.82 " fill="none" id="Round-Attempt" style="stroke:#181818;stroke-width:1.0;"/><polygon fill="#181818" points="392.75,780.1,389.533,786.5538,394.253,792.0055,397.47,785.5517,392.75,780.1" style="stroke:#181818;stroke-width:1.0;"/><polygon fill="#181818" points="402.39,856.83,405.2415,847.403,401.7692,851.8687,397.3034,848.3963,402.39,856.83" style="stroke:#181818;stroke-width:1.0;"/><line style="stroke:#181818;stroke-width:1.0;" x1="401.7692" x2="400.765" y1="851.8687" y2="843.935"/><polygon fill="#000000" points="403.6221,823.5276,405.4128,814.1871,399.5806,814.9184,403.6221,823.5276" style="stroke:#000000;stroke-width:1.0;"/><text fill="#000000" font-family="sans-serif" font-size="13" lengthAdjust="spacing" textLength="50" x="412" y="823.0669">«owns»</text><text fill="#000000" font-family="sans-serif" font-size="13" lengthAdjust="spacing" textLength="40" x="339.7898" y="830.9443">10..12</text><text fill="#000000" font-family="sans-serif" font-size="13" lengthAdjust="spacing" textLength="75" x="322.2898" y="846.0771">- _attempts</text></g><!--link Round to GameMode--><g id="link_Round_GameMode"><path codeLine="115" d="M666.5463,785.4902 C666.5463,785.4902 697.17,801.62 711,810 C730.71,821.93 750.13,837.6 767.09,852.96 " fill="none" id="Round-GameMode" style="stroke:#181818;stroke-width:1.0;"/><polygon fill="#181818" points="655.8,780.15,659.3931,786.4022,666.5463,785.4902,662.9532,779.238,655.8,780.15" style="stroke:#181818;stroke-width:1.0;"/><polygon fill="#181818" points="776.77,861.94,772.8873,852.8888,773.1025,858.5415,767.4498,858.7568,776.77,861.94" style="stroke:#181818;stroke-width:1.0;"/><line style="stroke:#181818;stroke-width:1.0;" x1="773.1025" x2="767.235" y1="858.5415" y2="853.1"/><polygon fill="#000000" points="743.1518,821.3525,737.2787,813.872,734.0035,818.7528,743.1518,821.3525" style="stroke:#000000;stroke-width:1.0;"/><text fill="#000000" font-family="sans-serif" font-size="13" lengthAdjust="spacing" textLength="50" x="748" y="823.0669">«owns»</text><text fill="#000000" font-family="sans-serif" font-size="13" lengthAdjust="spacing" textLength="8" x="716.237" y="837.061">1</text><text fill="#000000" font-family="sans-serif" font-size="13" lengthAdjust="spacing" textLength="93" x="673.737" y="852.1938">- _GAMEMODE</text></g><!--link Round to Combination--><g id="link_Round_Combination"><path codeLine="116" d="M146.32,780.02 C117.5,801.11 91.93,826.52 74,857 C49.88,897.99 50.04,922.92 74,964 C91.54,994.09 117.84,1018.47 147.04,1038.06 " fill="none" id="Round-to-Combination" style="stroke:#181818;stroke-width:1.0;stroke-dasharray:7.0,7.0;"/><polygon fill="#181818" points="151.37,1040.92,146.0674,1032.6204,147.1988,1038.163,141.6562,1039.2944,151.37,1040.92" style="stroke:#181818;stroke-width:1.0;"/><polygon fill="#000000" points="79.014,915.5664,81.9276,906.5131,76.0498,906.5295,79.014,915.5664" style="stroke:#000000;stroke-width:1.0;"/><text fill="#000000" font-family="sans-serif" font-size="13" lengthAdjust="spacing" textLength="46" x="88" y="915.0669">«uses»</text></g><!--link Round to Clue--><g id="link_Round_Clue"><path codeLine="117" d="M607.79,780.17 C624.83,789.55 641.43,799.52 657,810 C682.03,826.86 688.33,832.54 706,857 C736.85,899.71 724.4,922.61 757,964 C770.1,980.63 784.89,974.89 794,994 C877.12,1168.41 804.92,1406.86 765.55,1511.12 " fill="none" id="Round-to-Clue" style="stroke:#181818;stroke-width:1.0;stroke-dasharray:7.0,7.0;"/><polygon fill="#181818" points="763.7,1515.98,770.6312,1508.983,765.4728,1511.3048,763.151,1506.1465,763.7,1515.98" style="stroke:#181818;stroke-width:1.0;"/><polygon fill="#000000" points="838.0549,1115.9539,839.0194,1106.4923,833.2738,1107.7324,838.0549,1115.9539" style="stroke:#000000;stroke-width:1.0;"/><text fill="#000000" font-family="sans-serif" font-size="13" lengthAdjust="spacing" textLength="46" x="846" y="1115.5669">«uses»</text></g><!--link Combination to PawnColor--><g id="link_Combination_PawnColor"><path codeLine="120" d="M141.4405,1187.8183 C141.4405,1187.8183 90.18,1230.26 74,1258 C33.95,1326.67 67.95,1414.26 105.6,1478.03 " fill="none" id="Combination-PawnColor" style="stroke:#181818;stroke-width:1.0;"/><polygon fill="none" points="151.37,1181.08,144.1591,1181.1393,141.4405,1187.8183,148.6514,1187.759,151.37,1181.08" style="stroke:#181818;stroke-width:1.0;"/><polygon fill="#181818" points="112.41,1489.25,111.1616,1479.4806,109.8165,1484.9752,104.3219,1483.6301,112.41,1489.25" style="stroke:#181818;stroke-width:1.0;"/><line style="stroke:#181818;stroke-width:1.0;" x1="109.8165" x2="105.66" y1="1484.9752" y2="1478.14"/><polygon fill="#000000" points="78.3872,1333.0287,82.4126,1324.412,76.579,1323.6916,78.3872,1333.0287" style="stroke:#000000;stroke-width:1.0;"/><text fill="#000000" font-family="sans-serif" font-size="13" lengthAdjust="spacing" textLength="71" x="88" y="1332.5669">«contains»</text><text fill="#000000" font-family="sans-serif" font-size="13" lengthAdjust="spacing" textLength="24" x="55.539" y="1463.5879">4..6</text><text fill="#000000" font-family="sans-serif" font-size="13" lengthAdjust="spacing" textLength="70" x="34.539" y="1478.7207"># _PAWNS</text></g><!--link Solution to PawnColor--><g id="link_Solution_PawnColor"><path codeLine="123" d="M355.34,1398.09 C313.93,1434.46 264,1478.31 225.96,1511.72 " fill="none" id="Solution-to-PawnColor" style="stroke:#181818;stroke-width:1.0;stroke-dasharray:7.0,7.0;"/><polygon fill="#181818" points="221.85,1515.33,231.2517,1512.3961,225.6067,1512.0304,225.9724,1506.3854,221.85,1515.33" style="stroke:#181818;stroke-width:1.0;"/><polygon fill="#000000" points="317.2432,1439.8659,325.9787,1436.1053,322.0999,1431.6889,317.2432,1439.8659" style="stroke:#000000;stroke-width:1.0;"/><text fill="#000000" font-family="sans-serif" font-size="13" lengthAdjust="spacing" textLength="46" x="330" y="1441.0669">«uses»</text></g><!--link Solution to Clue--><g id="link_Solution_Clue"><path codeLine="124" d="M525.33,1398.09 C574.12,1435 633.1,1479.61 677.51,1513.2 " fill="none" id="Solution-to-Clue" style="stroke:#181818;stroke-width:1.0;stroke-dasharray:7.0,7.0;"/><polygon fill="#181818" points="681.76,1516.42,676.9945,1507.8009,677.772,1513.404,672.1689,1514.1816,681.76,1516.42" style="stroke:#181818;stroke-width:1.0;"/><polygon fill="#000000" points="587.9877,1439.5827,582.5468,1431.7822,579.0009,1436.4701,587.9877,1439.5827" style="stroke:#000000;stroke-width:1.0;"/><text fill="#000000" font-family="sans-serif" font-size="13" lengthAdjust="spacing" textLength="46" x="593" y="1441.0669">«uses»</text></g><!--link Attempt to Clue--><g id="link_Attempt_Clue"><path codeLine="127" d="M490.0672,972.2123 C490.0672,972.2123 532.27,1015.67 546,1041 C586.25,1115.27 521.79,1166.78 580,1228 C620.26,1270.34 669.08,1214.42 708,1258 C739.27,1293.02 744.57,1424.05 744.82,1502.68 " fill="none" id="Attempt-Clue" style="stroke:#181818;stroke-width:1.0;"/><polygon fill="#181818" points="481.17,964.16,482.9345,971.1519,490.0672,972.2123,488.3027,965.2204,481.17,964.16" style="stroke:#181818;stroke-width:1.0;"/><polygon fill="#181818" points="744.82,1515.78,748.8299,1506.7844,744.8255,1510.78,740.8299,1506.7756,744.82,1515.78" style="stroke:#181818;stroke-width:1.0;"/><line style="stroke:#181818;stroke-width:1.0;" x1="744.8255" x2="744.82" y1="1510.78" y2="1502.775"/><polygon fill="#000000" points="587.1645,1224.0736,585.8981,1214.6477,580.5996,1217.1923,587.1645,1224.0736" style="stroke:#000000;stroke-width:1.0;"/><text fill="#000000" font-family="sans-serif" font-size="13" lengthAdjust="spacing" textLength="50" x="594" y="1224.0669">«owns»</text><text fill="#000000" font-family="sans-serif" font-size="13" lengthAdjust="spacing" textLength="7" x="713.2219" y="1489.6898">*</text><text fill="#000000" font-family="sans-serif" font-size="13" lengthAdjust="spacing" textLength="50" x="691.7219" y="1504.8226">- _clues</text></g><!--link Attempt to Clue--><g id="link_Attempt_Clue"><path codeLine="132" d="M500.6703,971.4451 C500.6703,971.4451 519.12,986.52 527,994 C634.96,1096.44 676.84,1120.18 733,1258 C765.53,1337.84 761.21,1439.37 753.7,1502.91 " fill="none" id="Attempt-Clue-1" style="stroke:#181818;stroke-width:1.0;"/><polygon fill="#181818" points="491.15,964.14,493.4751,970.966,500.6703,971.4451,498.3452,964.6191,491.15,964.14" style="stroke:#181818;stroke-width:1.0;"/><polygon fill="#181818" points="752.06,1515.87,757.1558,1507.4419,752.6863,1510.9094,749.2188,1506.4399,752.06,1515.87" style="stroke:#181818;stroke-width:1.0;"/><line style="stroke:#181818;stroke-width:1.0;" x1="752.6863" x2="753.695" y1="1510.9094" y2="1502.97"/><polygon fill="#000000" points="726.1493,1224.0809,724.9147,1214.6508,719.6076,1217.1775,726.1493,1224.0809" style="stroke:#000000;stroke-width:1.0;"/><text fill="#000000" font-family="sans-serif" font-size="13" lengthAdjust="spacing" textLength="50" x="733" y="1224.0669">«owns»</text><text fill="#000000" font-family="sans-serif" font-size="13" lengthAdjust="spacing" textLength="8" x="781.8083" y="1489.7913">1</text><text fill="#000000" font-family="sans-serif" font-size="13" lengthAdjust="spacing" textLength="58" x="756.8083" y="1504.9241">- _CLUES</text></g><!--link Attempt to Combination--><g id="link_Attempt_Combination"><path codeLine="128" d="M388.7476,975.6349 C388.7476,975.6349 380.27,999.97 376,1011 C373.76,1016.78 371.37,1022.71 368.91,1028.66 " fill="none" id="Attempt-Combination" style="stroke:#181818;stroke-width:1.0;"/><polygon fill="#181818" points="392.57,964.26,386.8672,968.6733,388.7476,975.6349,394.4504,971.2216,392.57,964.26" style="stroke:#181818;stroke-width:1.0;"/><polygon fill="#181818" points="363.76,1040.86,370.9441,1034.1229,365.7037,1036.2533,363.5733,1031.0129,363.76,1040.86" style="stroke:#181818;stroke-width:1.0;"/><line style="stroke:#181818;stroke-width:1.0;" x1="365.7037" x2="368.815" y1="1036.2533" y2="1028.88"/><polygon fill="#000000" points="384.248,1007.2494,390.17,999.8076,384.6648,997.748,384.248,1007.2494" style="stroke:#000000;stroke-width:1.0;"/><text fill="#000000" font-family="sans-serif" font-size="13" lengthAdjust="spacing" textLength="50" x="395" y="1007.0669">«owns»</text><text fill="#000000" font-family="sans-serif" font-size="13" lengthAdjust="spacing" textLength="8" x="413.1715" y="1014.8209">1</text><text fill="#000000" font-family="sans-serif" font-size="13" lengthAdjust="spacing" textLength="88" x="375.1715" y="1029.9537">_combination</text></g><!--link Attempt to Combination--><g id="link_Attempt_Combination"><path codeLine="131" d="M316.7358,973.1005 C316.7358,973.1005 306.44,986.95 303,994 C297.83,1004.57 296.37,1016.14 297.24,1027.76 " fill="none" id="Attempt-Combination-1" style="stroke:#181818;stroke-width:1.0;"/><polygon fill="#181818" points="324.74,964.16,317.7577,965.9622,316.7358,973.1005,323.718,971.2983,324.74,964.16" style="stroke:#181818;stroke-width:1.0;"/><polygon fill="#181818" points="299.12,1040.84,301.8041,1031.3639,298.4114,1035.8905,293.8848,1032.4978,299.12,1040.84" style="stroke:#181818;stroke-width:1.0;"/><line style="stroke:#181818;stroke-width:1.0;" x1="298.4114" x2="297.265" y1="1035.8905" y2="1027.975"/><polygon fill="#000000" points="306.3203,1007.2758,312.1271,999.7437,306.5908,997.7691,306.3203,1007.2758" style="stroke:#000000;stroke-width:1.0;"/><text fill="#000000" font-family="sans-serif" font-size="13" lengthAdjust="spacing" textLength="50" x="317" y="1007.0669">«owns»</text><text fill="#000000" font-family="sans-serif" font-size="13" lengthAdjust="spacing" textLength="8" x="186.2885" y="1014.799">1</text><text fill="#000000" font-family="sans-serif" font-size="13" lengthAdjust="spacing" textLength="193" x="93.7885" y="1029.9318">- _COMBINATION_SUBMITTED</text></g><!--SRC=[jLPRZviu57xdLrZPXydCTA9sRmzH5OamD8iQ889aqwfTHGIyCwXWHzXqThVgVzzZ0yOcPDG-D0z9V2xVEUSxlXpsAIUdf4fAnFY_1ORlAazvNHOMKvgqI1YpEMYEDSTUIacS_uVHow796qfuB56MjCYinpp329EwH2NcZpHZZIGd75T_9ob6IGV9BEkKf9-I1um-v_Y9eIyMWey4HJv0x7EIqIVqvQicNoKb7fEx9El5NtjaI9jNj2XmTOxlADrvZ4iwY6Egj5WbpN1XXX5GhK1yxj0XM4RXBhYFVVlT77d0oWEkbFvMEap9CQ8roPWokDOi2Fw7IpMOGNjmUUAzuGj4ZWujQCKyuj3oc9E4vvHe-WS8u4EYSnbA_BlMqikPa8QVSJMzdaD3QO4JekdJ2YSS1pykXLlqWBbJLnKcRGZ8G_wvR18SXT6GoplOXPcaKqTFaoAj2wWXJcc56xNfgtTRmW_xPs-thh_PncFj-s6D4LrlGQTcmsJ8InsxHQm-bZdNGavJFRoc66-22Zf7xT_dp9vfHTlDYxrGtRxK32tLOKkSS1r6iHSueR_q0dlhXS5v5Z_f24OYklpvDWqu2iQCnnY0Fc2-IPu8cvx4zno9XNJ-yDS0j36xDapEo8XfKKicO5y0kPVOkLM6trKOmPLeI-TgD8sMSFd37SmVlsbJmQgeSLj10v533Whxr1MfrJkwaNFM-RoHEoK5M8Ow-F6zJoikrAmnrcord7HMsrri4DWT0At2M9ufZZEZr1TeaDBWe8puYovhye63p7oCGFFWQ2VKF3hoHpx5Ybdq-hKGB1PQYP5xh_wl8jSDr6gvthbgyTvThyEzMeQH7QnwxSOBtgh5sblziJsi8lkz4ldsoWssjiQuJAoxwiRoSjPs77kEMhjstEC5Ez-DMgM69wWQmzf3yeVDsdQqMdql7aZsKHYiMaYWxoh2XUmBJ2fNVueH1NxxmSJIPfJPR34SAUPe0PamNE2KiyK2NFlPnTB66E4wc3ZENTLuO_M3Zd0qnv5plrx9sWHwYJM8Ik_k5cZowYE1ArKyHfDcUcb07nEI5RW1zUMSq-9957GZVN-PpNwJxfKSNoRj-zaWKBZLm5sQTpNBrZVgchNepMFVUDveASNXUYSkzab_znd0XiVBsUpLpz8jQL_YYJhSbxsamyhsNJ-yToV330qFKO5-vHf5Q2PYFmuAr0-y3j7m_-jizlj70e_LOMFlWtYYdTq6HqoqIKuQh8uAIt4YeWvTsj26pNbcflfIRLP7OyFPZUHCNdmJ7RCbopG6Wi6sHvwCX6aThQjksZY3W7ZQEt-8TqlVWv7i_XcqKGoutEAndFy7]--></g></svg>